<svg id="Capa_1" enable-background="new 0 0 47 58" height="512" viewBox="0 0 47 58" width="512" xmlns="http://www.w3.org/2000/svg"><g><path id="Shape_2_" d="m17.73 46.69c4.832-3.585 8.214-8.788 9.53-14.66.461-1.977.703-4 .72-6.03v-7h6c.371.003.712-.203.883-.532s.143-.726-.073-1.028l-11.97-17.03c-.188-.259-.49-.413-.81-.413s-.622.153-.81.413l-12.03 17.03c-.216.302-.244.699-.073 1.028s.512.535.883.532h6v7.27c-.047 4.338-2.137 8.4-5.64 10.96-1.933 1.466-5.492 4.581-7.919 9.781-1.896 4.062-2.332 7.751-2.421 10.019.019.543.467.973 1.01.97h10.01c.507-.004.99-.92.99-.92.145-.999.401-2.141.848-3.359 1.277-3.481 3.448-5.775 4.872-7.031z"/><path d="m29.21 32.49c-.999 4.342-3.03 8.379-5.92 11.77 5.084-.994 10.301.903 13.56 4.93.172.203.419.328.684.347s.527-.07.726-.247l7.56-6.55c.413-.353.467-.972.12-1.39-4.202-5.044-10.158-8.309-16.67-9.14-.02.09-.04.19-.06.28z"/></g></svg>