<svg height="512" viewBox="0 0 42 58" width="512" xmlns="http://www.w3.org/2000/svg"><g id="Page-1" fill="none" fill-rule="evenodd"><g id="003---Right-Arrow" fill="rgb(0,0,0)" fill-rule="nonzero" transform="translate(-1)"><path id="Shape" d="m13.37 29.23c-1.562009 4.9295432-2.3612409 10.068908-2.37 15.24v12.53c.0015928.5516236.4483764.9984072 1 1h10c.5516236-.0015928.9984072-.4483764 1-1v-11.47c-.0607518-9.3373145 2.9076803-18.4426117 8.46-25.95.24-.33.49-.64.73-.95l4.6 4.55c.2627899.2599968.6472723.3544032 1.0005963.2456881.3533241-.1087151.6182297-.4029332.6894037-.7656881l4.19-21.46c.0632969-.3283353-.0404315-.66668259-.2768744-.90312557-.236443-.23644297-.5747903-.34017131-.9031256-.27687443l-21.43 4.39c-.3614416.07392272-.6526605.34113848-.7573248.69490391s-.0057136.73641598.2573248.99509609l4.04 4c-2.5674969 3.133239-4.7809271 6.54058-6.6 10.16-1.4538617 2.8854294-2.6679539 5.8855416-3.63 8.97z"/><path id="Shape" d="m9.53 37.19c.40741199-2.9014485 1.0529241-5.7644453 1.93-8.56.9957538-3.1868639 2.2499161-6.2871531 3.75-9.27.21-.42.43-.83.64-1.24-1.4352305-2.5014897-3.0564645-4.8915564-4.85-7.15-.1780592-.2224506-.442558-.3583787-.7270856-.3736553-.28452767-.0152767-.56206016.0915491-.7629144.2936553l-8.21 6.84c-.34947905.3349645-.40055374.8755049-.12 1.27 3.54690799 5.6828409 6.35297395 11.795696 8.35 18.19z"/></g></g></svg>