<svg height="512" viewBox="0 0 32 58" width="512" xmlns="http://www.w3.org/2000/svg"><g id="Page-1" fill="none" fill-rule="evenodd"><g id="006---Merging-Lanes-Arrow" fill="rgb(0,0,0)" fill-rule="nonzero" transform="translate(0 -1)"><path id="Shape" d="m1 59h10c.5522847 0 1-.4477153 1-1v-3.9772c-.0000293-3.9584132 1.233871-7.8183889 3.53-11.0428l.47-.66.4832.6785c2.2875063 3.2123696 3.5167888 7.0578972 3.5168 11.0015v4c0 .5522847.4477153 1 1 1h10c.5522847 0 1-.4477153 1-1v-4c.015594-6.4541139-2.0033788-12.7489702-5.77-17.99l-.7-.99c-2.3039715-3.2118669-3.5389511-7.0672423-3.53-11.02v-4h6c.3708398.002689.7118642-.2028062.8827573-.5319337s.1427857-.7262873-.0727573-1.0280663l-11.97-17.03c-.1884555-.25917327-.4895531-.41251592-.81-.41251592s-.6215445.15334265-.81.41251592l-12.03 17.03c-.215543.301779-.2436504.6989388-.07275728 1.0280663.17089311.3291275.51191752.5346227.88275728.5319337h6v4.0036c-.00001649 3.9502496-1.23417395 7.8017998-3.53 11.0164l-.7.98c-3.75270667 5.2543735-5.77001828 11.549924-5.77 18.0068v3.9932c0 .5522847.44771525 1 1 1z"/></g></g></svg>