<svg height="512" viewBox="0 0 58 58" width="512" xmlns="http://www.w3.org/2000/svg"><g id="Page-1" fill="none" fill-rule="evenodd"><g id="009---4-Way-Traffic-Arrow-" fill="rgb(0,0,0)" fill-rule="nonzero" transform="translate(-1 -1)"><path id="Shape" d="m55.65 27.3-6.63-4.8-1.94-1.37c-.2085956-.1501964-.4839409-.1702902-.712132-.0519688-.2281911.1183213-.370427.3549385-.367868.6119688v4.31h-12v-12h4.32c.256155.000568.4911839-.141954.6090967-.3693573.1179128-.2274032.0989682-.5016152-.0490967-.7106427l-8.3-11.63c-.127587-.18322004-.3367333-.29243877-.56-.29243877s-.432413.10921873-.56.29243877l-2.16 3.06-4.8 6.63-1.37 1.94c-.1501964.2085956-.1702902.4839409-.0519688.712132.1183213.2281911.3549385.370427.6119688.367868h4.31v12h-12v-4.31c.002559-.2570303-.1396769-.4936475-.367868-.6119688-.2281911-.1183214-.5035364-.0982276-.712132.0519688l-1.94 1.37-6.63 4.8-3.06 2.16c-.18326171.1275587-.29251379.3367152-.29251379.56s.10925208.4324413.29251379.56l11.63 8.3c.2090431.147987.4832137.1668898.7105884.0489919.2273746-.117898.369907-.3528691.3694116-.6089919v-4.32h12v12h-4.31c-.2570303-.002559-.4936475.1396769-.6119688.367868-.1183214.2281911-.0982276.5035364.0519688.712132l1.37 1.94 4.8 6.63 2.16 3.06c.127587.18322.3367333.2924388.56.2924388s.432413-.1092188.56-.2924388l8.3-11.63c.1480649-.2090275.1670095-.4832395.0490967-.7106427-.1179128-.2274033-.3529417-.3699253-.6090967-.3693573h-4.32v-12h12v4.32c-.0004954.2561228.142037.4910939.3694116.6089919.2273747.1178979.5015453.0989951.7105884-.0489919l11.63-8.3c.1832617-.1275587.2925138-.3367152.2925138-.56s-.1092521-.4324413-.2925138-.56z"/></g></g></svg>