<svg id="Capa_1" enable-background="new 0 0 34 58" height="512" viewBox="0 0 34 58" width="512" xmlns="http://www.w3.org/2000/svg"><g id="Page-1"><g transform="translate(0 -1)"><path id="Shape_2_" d="m17.25 26c2.085-.014 3.764-1.715 3.75-3.8v-8.2h4.32c.256 0 .491-.142.609-.369s.099-.502-.049-.711l-8.3-11.63c-.128-.183-.337-.293-.56-.293s-.432.109-.56.293l-2.16 3.06-4.8 6.63-1.37 1.94c-.15.209-.17.484-.052.712s.355.371.612.368h4.31v4.47c-7.628 1.85-13 8.68-13 16.53s5.372 14.68 13 16.53v7.47h8v-11.2c-.014-1.028-.439-2.007-1.179-2.721s-1.734-1.102-2.761-1.079h-.06c-4.967-.007-8.993-4.033-9-9-.014-.558-.041-3.84 2.576-6.45 2.707-2.699 6.133-2.578 6.674-2.55z"/><path d="m34 35c-.002-7.074-4.382-13.409-11-15.91v3.11c.006 1.809-.839 3.516-2.28 4.61 3.224 1.461 5.291 4.677 5.28 8.216s-2.097 6.743-5.33 8.184c1.461 1.074 2.325 2.777 2.33 4.59v3.11c6.618-2.501 10.998-8.836 11-15.91z"/></g></g></svg>