<svg height="512" viewBox="0 0 58 46" width="512" xmlns="http://www.w3.org/2000/svg"><g id="Page-1" fill="none" fill-rule="evenodd"><g id="016---Left-Turn-Exit-Arrow" fill="rgb(0,0,0)" fill-rule="nonzero" transform="translate(-1 -1)"><path id="Shape" d="m4.35 20.71 6.63 4.8 1.94 1.37c.2085956.1501964.4839409.1702902.712132.0519688.2281911-.1183213.370427-.3549385.367868-.6119688v-4.31h11.47c1.5127827 6.1847207 6.3440734 11.0121557 12.53 12.52v11.47c.0015928.5516236.4483764.9984072 1 1h6c.5516236-.0015928.9984072-.4483764 1-1v-15c.0249475-2.172746-1.7075018-3.9587763-3.88-4h-.12c-.421627.0006009-.8427389-.0294786-1.26-.09-.14-.02-.28-.04-.42-.07-.19-.03-.38-.08-.57-.12-.19-.05-.38-.1-.56-.16-.19-.06-.37-.12-.56-.2-2.451895-.9732162-4.3456094-2.9841431-5.17-5.49-.0213204-.0620164-.0380325-.1255223-.05-.19-.06-.19-.12-.38-.17-.58-.04-.21-.08-.41-.12-.62-.03-.18-.05-.37-.07-.56l-.03-.33c-.01-.12-.02-.25-.02-.37v-.11c.0260669-2.2361343-1.7639038-4.0708542-4-4.1h-15v-4.32c.0004954-.25612284-.142037-.49109392-.3694116-.60899187-.2273747-.11789796-.5015453-.09899513-.7105884.04899187l-11.63 8.3c-.18326171.1275587-.29251379.3367152-.29251379.56s.10925208.4324413.29251379.56z"/><path id="Shape" d="m26.09 12.01h2.91c1.8746743-.007952 3.6415571.8754894 4.76 2.38.05-.13.11-.26.17-.38h.01c1.7396137-3.5158266 5.5566754-5.49924632 9.4335866-4.9018757s6.9198755 3.6378117 7.520462 7.5142261c.6005864 3.8764143-1.3796663 7.69512-4.8940486 9.4376496-.11.05-.22.11-.34.16 1.4804697 1.1430904 2.3452434 2.909594 2.34 4.78v2.91c7.3278302-2.7633102 11.8201202-10.1747137 10.8798287-17.9495983-.9402914-7.77488464-7.069886-13.90168159-14.8451991-14.8384236s-15.184665 3.55893093-17.9446296 10.8880219z"/></g></g></svg>