<svg height="512" viewBox="0 0 23 58" width="512" xmlns="http://www.w3.org/2000/svg"><g id="Page-1" fill="none" fill-rule="evenodd"><g id="017---Winding-Road-Arrow" fill="rgb(0,0,0)" fill-rule="nonzero" transform="translate(0 -1)"><path id="Shape" d="m16.53 43.96.4-.1c3.5712981-.8894977 6.0758383-4.0996002 6.07-7.78v-.11c.0079894-3.7219886-2.5548186-6.9566006-6.18-7.8l-9.26-2.18c-.91710085-.2124234-1.56484569-1.0316216-1.56005501-1.9729901s.66083965-1.7539316 1.58005501-1.9570099l1.14-.26c3.680827-.7977087 6.3003581-4.0637801 6.28-7.83v-1.97h4c.3765355-.0000585.7212122-.2113307.8921314-.5468387.1709192-.3355081.1391876-.7385354-.0821314-1.0431613l-7-9c-.1884555-.25917327-.4895531-.41251592-.81-.41251592s-.6215445.15334265-.81.41251592l-7 9c-.22131898.3046259-.25305061.7076532-.08213142 1.0431613.17091919.335508.51559587.5467802.89213142.5468387h4v1.97c.0087798.9488294-.65189431 1.7725813-1.58 1.97l-1.14.26c-3.65039572.8100206-6.25603295 4.0360302-6.2799556 7.775141-.02392266 3.7391109 2.54022324 6.9981965 6.1799556 7.854859l9.26 2.18c.9133187.2097996 1.5604758 1.0228945 1.56 1.96v.11c-.0003132.9268461-.6309491 1.7347195-1.53 1.96l-.4.1c-3.5712981.8894977-6.07583829 4.0996002-6.07 7.78v2.08h-4c-.37653555.0000585-.72121223.2113307-.89213142.5468387-.17091919.3355081-.13918756.7385354.08213142 1.0431613l7 9c.1884555.2591733.4895531.4125159.81.4125159s.6215445-.1533426.81-.4125159l7-9c.221319-.3046259.2530506-.7076532.0821314-1.0431613-.1709192-.335508-.5155959-.5467802-.8921314-.5468387h-4v-2.08c.0003132-.9268461.6309491-1.7347195 1.53-1.96z"/></g></g></svg>