<svg height="512" viewBox="0 0 58 37" width="512" xmlns="http://www.w3.org/2000/svg"><g id="Page-1" fill="none" fill-rule="evenodd"><g id="018---Left-Lane-Exit-Arrow" fill="rgb(0,0,0)" fill-rule="nonzero"><path id="Shape" d="m57.7036 6.29-5.9936-5.9975c-.3930079-.38997787-1.0269921-.38997787-1.42 0l-5.9936 5.9975c-.2871614.28480911-.3744903.71455196-.2212679 1.08885236s.5168238.61945187.9212679.62114764h3.0036v28c0 .5522847.4477153 1 1 1h4c.5522847 0 1-.4477153 1-1v-28h3.0035c.4044623-.00165557.7681006-.2467923.9213485-.6211017.153248-.3743094.0659255-.80407633-.2212485-1.0888983z"/><path id="Shape" d="m29.71.2925c-.3930079-.38997787-1.0269921-.38997787-1.42 0l-5.9936 5.9975c-.2871614.28480911-.3744903.71455196-.2212679 1.08885236s.5168238.61945187.9212679.62114764h3.0036v28c0 .5522847.4477153 1 1 1h4c.5522847 0 1-.4477153 1-1v-28h3.0035c.4044441-.00169577.7680455-.24684724.9212679-.62114764s.0658935-.80404325-.2212679-1.08885236z"/><path id="Shape" d="m9.6117 3h-8.6117c-.55162365.00159279-.99840721.44837635-1 1v8.48c-.00237145.4037087.23824083.7692453.60998938.9266917.37174856.1574465.80170676.0759163 1.09001062-.2066917l2.26-2.13 3.4542 4.4542c.37507441.3750672.58579281.8837698.5858 1.4142v19.0616c.00159279.5516236.44837635.9984072 1 1h4c.5516236-.0015928.9984072-.4483764 1-1v-20.299c-.000018-1.3260756-.526814-2.597832-1.4645-3.5355l-4.3355-5.3355 2.12-2.12c.2864767-.28648388.3721744-.71732665.2171334-1.0916316-.1550411-.37430495-.5202891-.61836123-.9254334-.6183684z"/></g></g></svg>