<svg height="512" viewBox="0 0 58 36" width="512" xmlns="http://www.w3.org/2000/svg"><g id="Page-1" fill="none" fill-rule="evenodd"><g id="019---Left-Lane-Closed-Arrow" fill="rgb(0,0,0)" fill-rule="nonzero" transform="translate(-1)"><path id="Shape" d="m50 36h4c.5522847 0 1-.4477153 1-1v-27h3.0035c.4044441-.00169577.7680455-.24684724.9212679-.62114764s.0658935-.80404325-.2212679-1.08885236l-5.9935-5.9975c-.3930079-.38997787-1.0269921-.38997787-1.42 0l-5.9936 5.9975c-.2871614.28480911-.3744903.71455196-.2212679 1.08885236s.5168238.61945187.9212679.62114764h3.0036v27c0 .5522847.4477153 1 1 1z"/><path id="Shape" d="m30.71.2925c-.3930079-.38997787-1.0269921-.38997787-1.42 0l-5.9936 5.9975c-.2871614.28480911-.3744903.71455196-.2212679 1.08885236s.5168238.61945187.9212679.62114764h3.0036v27c0 .5522847.4477153 1 1 1h4c.5522847 0 1-.4477153 1-1v-27h3.0035c.4044441-.00169577.7680455-.24684724.9212679-.62114764s.0658935-.80404325-.2212679-1.08885236z"/><path id="Shape" d="m1.2754 11.0333 2.6894 2.6888c.3734943.3705256.9759057.3705256 1.3494 0l2.6892-2.6888 2.68 2.6888c.3734943.3705256.9759057.3705256 1.3494 0l2.6893-2.6888c.3706113-.373381.3706113-.975819 0-1.3492l-2.6893-2.6889 2.6893-2.6793c.3706113-.37338101.3706113-.97581899 0-1.3492l-2.6893-2.6888c-.3734719-.37058008-.9759281-.37058008-1.3494 0l-2.68 2.6888-2.6892-2.6888c-.37347186-.37058008-.97592814-.37058008-1.3494 0l-2.6894 2.6888c-.3706113.37338101-.3706113.97581899 0 1.3492l2.6894 2.6793-2.6894 2.6889c-.3706113.373381-.3706113.975819 0 1.3492z"/><rect id="Rectangle-path" height="18" rx="1" width="6" x="5" y="18"/></g></g></svg>