<svg height="512" viewBox="0 0 58 58" width="512" xmlns="http://www.w3.org/2000/svg"><g id="Page-1" fill="none" fill-rule="evenodd"><g id="021---Navigation-Symbol" fill="rgb(0,0,0)" fill-rule="nonzero" transform="translate(-1)"><path id="Shape" d="m30 58c6.3139308.0116974 12.4576171-2.0467361 17.49-5.86.33-.25.65-.5.96-.76 9.3783468-7.7341251 12.9378214-20.4965025 8.9159908-31.9679871-4.0218306-11.47148452-14.7713236-19.21722748-26.9259908-19.4020129-.11-.01-.22-.01-.33-.01h-.11c-.15 0-.3 0-.44.01-15.9304075.23663419-28.68597231 13.281701-28.56509025 29.2134073.12088207 15.9317063 13.07292615 28.7817163 29.00509025 28.7765927zm-17.83-12.08 15.78-40.52c.2866045-.73352608.9417907-1.25919871 1.72-1.38.11-.01.22-.02.33-.02s.22.01.33.02c.7739765.11615946 1.4284805.63367427 1.72 1.36l15.78 40.55c.2750125.6850216.1943525 1.4616177-.2155687 2.0754997-.4099212.6138821-1.096316.9859973-1.8344313.9945003-.4996993.0006398-.9840535-.1725963-1.37-.49-.0185438-.0108008-.035392-.0242794-.05-.04l-14.28-12.98c0-.01 0-.01-.01-.01-.0117335.0079537-.025904.0114964-.04.01 0-.01-.02-.01-.03 0h-.05c-.0285191.0092525-.0554866.0227362-.08.04l-14.23 12.94c-.783377.6537743-1.9117674.6886038-2.7339742.0843884s-1.125986-1.6915038-.7360258-2.6343884z"/><path id="Shape" d="m14.35 46.95 14.23-12.94c.1273529-.1083002.268602-.1991032.42-.27v-11.74c0-.5522847.4477153-1 1-1s1 .4477153 1 1v11.73c.1292035.0705644.2528891.1507929.37.24l14.3 12.99c.0671907.0581783.1681123.0537904.23-.01.0931562-.0600309.1273805-.1798158.08-.28l-14.98-38.47v9.8c0 .5522847-.4477153 1-1 1s-1-.4477153-1-1v-9.8l-14.97 38.46c-.058438.0997637-.0275135.2278798.07.29.0692887.0684219.1807113.0684219.25 0z"/></g></g></svg>