<svg height="512" viewBox="0 0 56 56" width="512" xmlns="http://www.w3.org/2000/svg"><g id="Page-1" fill="none" fill-rule="evenodd"><g id="022---GPS-Location" fill="rgb(0,0,0)" fill-rule="nonzero"><path id="Shape" d="m28.0049 40.0122 3.6142-11.0122h-7.2373l3.6187 11.0015z"/><path id="Shape" d="m10 28c0 9.9411255 8.0588745 18 18 18s18-8.0588745 18-18-8.0588745-18-18-18c-9.9365563.0110223-17.9889777 8.0634437-18 18zm30.208-6.3892c-.3373355-.4374095-.2562095-1.0654645.1812-1.4028s1.0654645-.2562095 1.4028.1812c.2.2592 4.8457 6.4521.084 15.0932-.1723449.3129647-.4985629.510211-.8557707.5174383-.3572078.0072272-.6911371-.1766626-.876-.4824-.1848628-.3057375-.1925742-.6868736-.0202293-.9998383 4.136-7.5059.125-12.8535.084-12.9068zm-18.1975 6.2733c.0055949-.0404745.0137446-.0805545.0244-.12.0062-.0253.0072-.0512.0154-.0762l4.0513-12.3164.0009-.0034c.2721049-.8168891 1.0364839-1.3679448 1.8975-1.3679448s1.6253951.5510557 1.8975 1.3679448l4.0522 12.32c.0082.025.0092.0509.0154.0762.0426549.1546459.0426549.3179541 0 .4726-.0062.0253-.0072.0512-.0154.0762l-4.0513 12.3158c-.2709549.8178249-1.0351821 1.3702274-1.8967235 1.3709991s-1.626757-.5502609-1.8991765-1.3675991l-.0009-.0034-4.0516-12.3164c-.0082-.025-.0092-.0509-.0154-.0762-.0266634-.1153775-.0348986-.2342479-.0244-.3522zm-6.2166-6.2762c-.1679.2217-4.0253 5.4561.0821 12.91.2664221.4838014.0902014 1.0919778-.3936 1.3584-.4838014.2664221-1.0919778.0902014-1.3584-.3936-4.7617-8.6411-.1157-14.834.084-15.0932.3365347-.4379342.9643658-.5201347 1.4023-.1836s.5201347.9643658.1836 1.4023z"/><path id="Shape" d="m47.5969 24h3.0331c-1.6575121-9.5185946-9.1114054-16.97248789-18.63-18.63v3.0327c7.8474532 1.6174931 13.9796081 7.7498054 15.5969 15.5973z"/><path id="Shape" d="m28 16-3.618 11h7.236z"/><path id="Shape" d="m26 2v6.1013c.6581-.0657 1.3249-.1013 2-.1013s1.3419.0356 2 .1013v-6.1013c0-1.1045695-.8954305-2-2-2s-2 .8954305-2 2z"/><path id="Shape" d="m50.63 32h-3.0331c-1.6174339 7.8473398-7.7495602 13.9794661-15.5969 15.5969v3.0331c9.5185946-1.6575121 16.9724879-9.1114054 18.63-18.63z"/><path id="Shape" d="m29.4131 55.4131c.3764825-.3737634.5878138-.8825934.5869-1.4131l.000003-6.1013c-.658103.0657-1.324903.1013-2.000003.1013s-1.3419-.0356-2.0000007-.1013l.0000007 6.1013c-.0006632.8089921.486484 1.5385777 1.233946 1.8480437.747462.3094661 1.607766.1377555 2.179154-.4349437z"/><path id="Shape" d="m48 28c0 .6751-.0356 1.3419-.1013 2h6.1013c1.1045695 0 2-.8954305 2-2s-.8954305-2-2-2h-6.1013c.0657.6581.1013 1.3249.1013 2z"/><path id="Shape" d="m24 50.63v-3.0331c-7.8473398-1.6174339-13.9794661-7.7495602-15.5969-15.5969h-3.0331c1.65751211 9.5185946 9.1114054 16.9724879 18.63 18.63z"/><path id="Shape" d="m5.37 24h3.0327c1.6174931-7.8474532 7.7498054-13.9796081 15.5973-15.5969v-3.0331c-9.5185946 1.65751211-16.97248789 9.1114054-18.63 18.63z"/><path id="Shape" d="m2 30h6.1013c-.0657-.6581-.1013-1.3249-.1013-2s.0356-1.3419.1013-2h-6.1013c-1.1045695 0-2 .8954305-2 2s.8954305 2 2 2z"/></g></g></svg>