<svg height="512" viewBox="0 0 56 35" width="512" xmlns="http://www.w3.org/2000/svg"><g id="Page-1" fill="none" fill-rule="evenodd"><g id="023---Navigation-Symbol-3D" fill="rgb(0,0,0)" fill-rule="nonzero"><path id="Shape" d="m29 23.7431 24.3228 11.2007c.0959609-.2011293.0832697-.4372172-.0337-.6269l-24.2891-33.556z"/><path id="Shape" d="m2.6772 34.9438 24.3228-11.2007v-22.9822l-24.2891 33.556c-.11720717.1896085-.12990505.4258192-.0337.6269z"/><path id="Shape" d="m36.1987 7.295 14.9778 20.6922c2.3571-1.7012 4.8235-4.2756 4.8235-7.6102 0-6-8.2-11.3282-19.8013-13.082z"/><path id="Shape" d="m13.6459 32.0944c4.6655531 1.3415471 9.4996129 2.0059983 14.3541 1.973 4.8544871.0329983 9.6885469-.6314529 14.3541-1.973l-14.3541-6.61z"/><path id="Shape" d="m0 20.377c0 3.3346 2.4664 5.909 4.8235 7.61l14.9827-20.6985c-11.5656 1.7359-19.8062 7.074-19.8062 13.0885z"/></g></g></svg>