<svg height="512" viewBox="0 0 59 59" width="512" xmlns="http://www.w3.org/2000/svg"><g id="Page-1" fill="none" fill-rule="evenodd"><g id="024---GPS-Car" fill="rgb(0,0,0)" fill-rule="nonzero"><path id="Shape" d="m9 59c1.1045695 0 2-.8954305 2-2v-5h-7v5c0 1.1045695.8954305 2 2 2z"/><path id="Shape" d="m38 59c1.1045695 0 2-.8954305 2-2v-5h-7v5c0 1.1045695.8954305 2 2 2z"/><path id="Shape" d="m2 50h40c1.1032246-.0032402 1.9967598-.8967754 2-2v-13c-.0032402-1.1032246-.8967754-1.9967598-2-2h-40c-1.10322458.0032402-1.9967598.8967754-2 2v13c.0032402 1.1032246.89677542 1.9967598 2 2zm34.5-13c1.9329966 0 3.5 1.5670034 3.5 3.5s-1.5670034 3.5-3.5 3.5-3.5-1.5670034-3.5-3.5c.0020943-1.9321285 1.5678715-3.4979057 3.5-3.5zm-29 0c1.93299662 0 3.5 1.5670034 3.5 3.5s-1.56700338 3.5-3.5 3.5-3.5-1.5670034-3.5-3.5c.00209433-1.9321285 1.56787154-3.4979057 3.5-3.5z"/><circle id="Oval" cx="36.5" cy="40.5" r="1.5"/><circle id="Oval" cx="7.5" cy="40.5" r="1.5"/><path id="Shape" d="m9.48 22.72c.12415509-.4268669.51544434-.7203338.96-.72h23.12c.4445557-.0003338.8358449.2931331.96.72l2.38 8.28h4.46l-3.13-9.79c-.7375379-1.932694-2.5913608-3.2096836-4.66-3.21h-23.14c-2.06863922.0003164-3.92246208 1.277306-4.66 3.21l-3.13 9.79h4.46z"/><path id="Shape" d="m11.19 24-2.01 7h25.64l-2.01-7z"/><path id="Shape" d="m40.5 0c-.19 0-.3682.0005-.5576.0112-.5514839.03181161-.9727616.50466607-.94095 1.05615s.5046661.97276159 1.05615.94095c.1499-.0083.2905-.0049.4424-.0083 9.1084263.01030537 16.4896946 7.39157367 16.5 16.5 0 .15.0005.292-.0083.4424-.0153196.2648292.0752134.524894.251675.7229609.1764617.1980669.4243909.3179043.689225.3331391.02.001.0391.0015.0586.0015.5296245-.0003918.9670938-.4136546.9976-.9424.0112-.1894.0112-.3676.0112-.5576-.0113529-10.21256166-8.2874383-18.48864713-18.5-18.5z"/><path id="Shape" d="m40.5 6c-.19 0-.3813 0-.561.0117-.5511856.0337624-.9706692.50790866-.937 1.0591.0128652.26591273.1325629.51536329.3319456.69177652s.4615543.26483938.7270544.24522348c.1402-.0078.2876-.0088.439-.0078 5.7962485.00661295 10.493387 4.7037515 10.5 10.5 0 .1494.0005.2983-.0078.439-.0336117.5511534.3858558 1.0252368.937 1.059.021.0015.0415.002.062.002.5281955-.0005482.9648803-.4117878.9971-.939.0117-.1797.0117-.371.0117-.561-.0077704-6.9003382-5.5996618-12.49222956-12.5-12.5z"/><path id="Shape" d="m45.8462 19.9922c.0416244.0052716.0835432.0078769.1255.0078.5037336-.0007971.9282376-.3761534.9907-.876.0252948-.2070342.0378518-.4154264.0376-.624-.004133-3.5881375-2.9118625-6.495867-6.5-6.5-.2085736-.0002518-.4169658.0123052-.624.0376-.542167.0748025-.9234772.5715479-.8556061 1.1146261.067871.5430782.5597053.9307025 1.1036061.8697739.1247566-.0151145.250332-.022462.376-.022 2.4841391.0027556 4.4972444 2.0158609 4.5 4.5.000462.125668-.0068855.2512434-.022.376-.0684363.547964.3202472 1.0476743.8682 1.1162z"/></g></g></svg>