<svg height="512" viewBox="0 0 58 44" width="512" xmlns="http://www.w3.org/2000/svg"><g id="Page-1" fill="none" fill-rule="evenodd"><g id="025---Back-To-Map" fill="rgb(0,0,0)" fill-rule="nonzero"><path id="Shape" d="m11.76 22.17.22 1.26c.4067313 2.3535407 1.73932 4.4460652 3.7 5.81 1.0134877.7198723 2.1694191 1.2142973 3.39 1.45l-1.67-9.51z"/><path id="Shape" d="m10.01 23.77-.22-1.25-4.79.84v10.88l14.04 4.44 1.37-.41-.97-5.5c-4.7711136-.6195105-8.5886501-4.2629705-9.43-9z"/><path id="Shape" d="m29.25 29.51-1.79-10.1-8.1 1.42 1.77 10.02c.429214-.0052381.8572914-.0453704 1.28-.12z"/><path id="Shape" d="m18.04 19.03 9.07-1.6-1.46-8.25-4.92 1.48c-1.1536115.3402412-2.3823379.3297987-3.53-.03l-7.94-2.51 2.15 12.08z"/><path id="Shape" d="m7.12 7.45-2.12-.67v14.55l4.44-.78z"/><path id="Shape" d="m22.75 32.7c-.4202502.071327-.8443041.1180731-1.27.14l.86 4.85 7.94-2.38-.68-3.83z"/><path id="Shape" d="m31.57 31.13.63 3.6 5.07-1.52c1.1518994-.3485042 2.3821235-.3415341 3.53.02l1.37.43-.75-4.27z"/><path id="Shape" d="m57.3 5.73-18.01-5.68c-.1876472-.06323252-.3902845-.06672627-.58-.01l-19.42 5.83c-.1903688.05174369-.3915281.04827542-.58-.01l-17.41-5.5c-.30468614-.09396113-.63588894-.03762903-.89237872.15177881s-.4077768.48937591-.40762128.80822119v35.85c-.00288553.4390261.28111617.8285141.7.96l18.01 5.68c.1867526.0682214.3910067.0717431.58.01l19.42-5.82c.1886777-.0600029.3913223-.0600029.58 0l17.41 5.5c.3046861.0939611.6358889.037629.8923787-.1517788.2564898-.1894079.4077768-.4893759.4076213-.8082212v-35.85c.0028855-.43902606-.2811162-.8285141-.7-.96zm-2.3 32.72c.0020834.3189849-.1492953.6195262-.4068464.8077365-.257551.1882104-.5898742.2411436-.8931536.1422635l-10.44-3.3c-.06-.02-.11-.03-.16-.05l-2.9-.91c-.7671206-.2415447-1.5888959-.2485089-2.36-.02l-6.06 1.82c-.0630833.0304274-.1305851.0506779-.2.06l-9.68 2.9c-.0586206.0212843-.1188002.0380008-.18.05l-2.4.73c-.0940756.0279777-.1918633.0414656-.29.04-.1014221.0014779-.2025083-.0120002-.3-.04l-15.03-4.75c-.41596099-.1295356-.69949844-.5143364-.7-.95v-29.57c-.00083032-.32005393.15158576-.62116862.41-.81.25826629-.18372802.58780001-.23556478.89-.14l3.98 1.26c.03086981.00185865.06124839.00860945.09.02l9.43 2.98c.7671206.24154473 1.5888959.24850893 2.36.02l5.93-1.77.18-.06 11.39-3.42.18-.05.84-.26c.1931109-.05671791.3989221-.05322959.59.01l15.03 4.74c.4188838.1314859.7028855.52097394.7.96z"/><path id="Shape" d="m39.51 7.21c.0484998.26033025-.0101404.52921567-.1626298.74571292s-.3859149.36227306-.6473702.40428708c-.0550769.01648016-.1126021.02324783-.17.02-.4875203-.00023492-.9047082-.34999849-.99-.83l-.32-1.84-9.65 2.9 1.5 8.47 2.07-.36c.4752095-.0782866.9396703.1895106 1.11.64.0212843.0586206.0380008.1188002.05.18.0083107.0562639.011657.1131497.01.17-.0033998.4863625-.3516908.9017939-.83.99l-2.06.36 1.79 10.11 9.86-1.75-.41-2.32c-.0607352-.3501203.0699302-.7060466.3427757-.9337049s.6464194-.292462.98-.17.5764891.4135846.6372243.7637049l.41 2.31 9.97-1.76v-10.43l-3.96.7c-.0584957.0165006-.119309.0232576-.18.02-.5165537-.0017855-.9463067-.3975921-.990495-.9122555-.0441882-.5146633.3118056-.9779331.820495-1.0677445l4.31-.76v-3.24l-13.83-4.37zm6.38 7.83c.0113239.0252815.0180945.0523639.02.08.0597223.3434503.0898329.6913959.09 1.04-.0071496 2.8641361-2.060981 5.3135826-4.88 5.82l-.42.06c-.21.02-.42.03-.62.03-2.8356674-.0077034-5.267815-2.0247086-5.8-4.81-.0113239-.0252815-.0180945-.0523639-.02-.08-.5630947-3.1985706 1.5590859-6.2525889 4.7532193-6.8403314 3.1941334-.58774252 6.2644253 1.5108251 6.8767807 4.7003314z"/><path id="Shape" d="m36.23 16.84c.3624159 2.0408088 2.2525397 3.445585 4.3111683 3.2041428s3.5724177-2.0454396 3.4527895-4.1147233c-.1196281-2.0692837-1.8312207-3.6868173-3.9039578-3.6894195-.2280027-.0003245-.4555769.0197556-.68.06-2.1290147.3799519-3.5504618 2.4093135-3.18 4.54z"/><path id="Shape" d="m44.31 34.34 8.69 2.74v-9.74l-9.62 1.7z"/></g></g></svg>