<svg height="512" viewBox="0 0 45 58" width="512" xmlns="http://www.w3.org/2000/svg"><g id="Page-1" fill="none" fill-rule="evenodd"><g id="026---Services" fill="rgb(0,0,0)" fill-rule="nonzero" transform="translate(0 -1)"><path id="Shape" d="m4.27 1.73c-.4330678-.43251746-1.00911361-.69209366-1.62-.73-.7071239-.00845798-1.38761557.26940219-1.88672085.77039088-.49910527.5009887-.77440043 1.18252209-.76327915 1.88960912v22.34c.00099343 2.7610122 2.23898785 4.9990066 5 5 1.65582667.0024782 2.99752183 1.3441733 3 3v21.5c.00209433 1.9321285 1.56787154 3.4979057 3.5 3.5h2c1.9321285-.0020943 3.4979057-1.5678715 3.5-3.5v-21.5c-.0010634-.795975.3146656-1.5596548.8775054-2.1224946s1.3265196-.8785688 2.1224946-.8775054c2.7610122-.0009934 4.9990066-2.2389878 5-5v-22.5c.0023856-1.32419313-1.0281903-2.42055043-2.35-2.5-.7071239-.00845798-1.3876156.26940219-1.8867208.77039088-.4991053.5009887-.7744005 1.18252209-.7632792 1.88960912v17.34c-.0015928.5516236-.4483764.9984072-1 1h-3c-.5516236-.0015928-.9984072-.4483764-1-1v-17.5c.0023856-1.32419313-1.0281903-2.42055043-2.35-2.5-.7071239-.00845798-1.3876156.26940219-1.8867208.77039088-.4991053.5009887-.77440048 1.18252209-.7632792 1.88960912v17.34c-.00159279.5516236-.44837635.9984072-1 1h-3c-.55162365-.0015928-.99840721-.4483764-1-1v-17.5c.00096508-.66345094-.2616168-1.30012208-.73-1.77z"/><path id="Shape" d="m43.56 1.09c-2.5497126 1.36240487-4.7555276 3.28779062-6.45 5.63-2.1678741 2.8011952-3.6074807 6.096142-4.19 9.59l-.12.71-.12.71c-.2381089 1.3467091-.3519211 2.712455-.34 4.08.0110429 1.3649868.1381677 2.7265611.38 4.07.7185862 3.7936542 1.6983171 7.5331512 2.9322 11.1918.2089761.6160401.3163121 1.2619816.3178 1.9125v16.5157c0 .9282577.3687489 1.8184964 1.0251263 2.4748737.6563773.6563774 1.546616 1.0251263 2.4748737 1.0251263h2c.9282577 0 1.8184964-.3687489 2.4748737-1.0251263.6563774-.6563773 1.0251263-1.546616 1.0251263-2.4748737v-36l.03-17.5c-.0013288-.34506601-.178733-.66557322-.4704365-.84991362-.2917035-.18434041-.6573314-.20699932-.9695635-.06008638z"/></g></g></svg>