<svg height="512" viewBox="0 0 58 59" width="512" xmlns="http://www.w3.org/2000/svg"><g id="Page-1" fill="none" fill-rule="evenodd"><g id="027---Search-Location" fill="rgb(0,0,0)" fill-rule="nonzero"><path id="Shape" d="m1.28 58.62 14.72-4.33v-46l-15.28 4.5c-.42926661.1206693-.72435212.5141166-.72.96v43.91c-.00126809.3152222.1466121.6124759.39879193.8016108.25217984.1891348.57894978.2478688.88120807.1583892z"/><path id="Shape" d="m28.19 11.29-10.19-3v46l15 4.42v-35.92c-.8499018-1.1191719-1.5336326-2.3552764-2.03-3.67-.8821354-2.3118184-1.1709298-4.807827-.84-7.26z"/><path id="Shape" d="m51 41.74c-.7447083-.6085328-1.317034-1.4015141-1.66-2.3l-4.01-10.62c-.11.01-.21.01-.32.01-3.696736-.0078814-7.2607496-1.3786559-10.01-3.85v33.73l16-4.71z"/><path id="Shape" d="m40.41 1.66c-4.9194712 1.85618188-8.236275 6.49316168-8.4036329 11.7485017-.1673579 5.2553401 2.8476927 10.0939597 7.6390944 12.2593872 4.7914018 2.1654276 10.4154505 1.2311651 14.2493925-2.3670978 3.8339421-3.5982629 5.1226525-9.1518199 3.265146-14.0707911-2.5365773-6.71429003-10.0342869-10.10280714-16.75-7.57zm12.79 15.86c-1.4617829 3.2135581-4.6596353 5.2829864-8.19 5.3-3.7392156-.0151215-7.0844616-2.3273936-8.42-5.82-1.752874-4.647456.5929551-9.83603619 5.24-11.59 1.0122679-.38570075 2.0867428-.58229236 3.17-.58 3.0549562-.0050211 5.9031494 1.54258588 7.5611672 4.10846958 1.6580178 2.56588372 1.8986578 5.79843442.6388328 8.58153042z"/><path id="Shape" d="m45 6.83c-2.7496979-.00193293-5.2440778 1.61138653-6.37 4.12-.7692942 1.6854569-.8305314 3.6090244-.17 5.34 1.0346258 2.7206637 3.6392616 4.5220377 6.55 4.53.8415915.0022949 1.6761035-.153752 2.46-.46 1.7382127-.650298 3.145258-1.9670362 3.9092623-3.6583577.7640042-1.6913214.8218579-3.6175169.1607377-5.3516423-1.0369783-2.71299745-3.6355968-4.50898455-6.54-4.52z"/><path id="Shape" d="m53.86 25.94c-1.0953573.7881458-2.2887351 1.4302166-3.55 1.91-.9430964.3622671-1.921879.6237227-2.92.78l3.82 10.11c.6881786 1.8037645 2.7063634 2.7103283 4.5118645 2.0267187 1.805501-.6836095 2.7171716-2.6994926 2.0381355-4.5067187z"/></g></g></svg>