<svg height="512" viewBox="0 0 58 58" width="512" xmlns="http://www.w3.org/2000/svg"><g id="Page-1" fill="none" fill-rule="evenodd"><g id="028---Location-Information" fill="rgb(0,0,0)" fill-rule="nonzero"><path id="Shape" d="m0 56.66c-.00126809.3152222.1466121.6124759.39879193.8016108.25217984.1891348.57894978.2478688.88120807.1583892l14.72-4.33v-46l-15.28 4.5c-.42926661.1206693-.72435212.5141166-.72.96z"/><path id="Shape" d="m18 53.29 15 4.42v-46l-15-4.42z"/><path id="Shape" d="m57 37h-2v-21c0-.5522847-.4477153-1-1-1h-9c-.5522847 0-1 .4477153-1 1v4c0 .5522847.4477153 1 1 1h2v16h-2c-.5522847 0-1 .4477153-1 1v4c0 .5522847.4477153 1 1 1h12c.5522847 0 1-.4477153 1-1v-4c0-.5522847-.4477153-1-1-1z"/><circle id="Oval" cx="51" cy="5" r="5"/><path id="Shape" d="m35 57.71 16-4.71v-8h-6c-1.6548482-.004833-2.995167-1.3451518-3-3v-4c.004833-1.6548482 1.3451518-2.995167 3-3v-12c-1.6548482-.004833-2.995167-1.3451518-3-3v-4c.004833-1.6548482 1.3451518-2.995167 3-3h6v-1c-2.3994253.0015498-4.6314001-1.2296241-5.91-3.26l-10.09 2.97z"/></g></g></svg>