<svg height="512" viewBox="0 0 39 58" width="512" xmlns="http://www.w3.org/2000/svg"><g id="Page-1" fill="none" fill-rule="evenodd"><g id="030---Lane-Changeover" fill="rgb(0,0,0)" fill-rule="nonzero" transform="translate(0 -1)"><path id="Shape" d="m29 41.48v16.52c.0015928.5516236.4483764.9984072 1 1h4c.5516236-.0015928.9984072-.4483764 1-1v-18.25c.0000463-1.430618-.7620801-2.7529072-2-3.47l-4-2.31-1-.58-6 3.47 6.5 3.75c.3101329.1798408.5007397.5114968.5.87z"/><path id="Shape" d="m5 59h4c.55162365-.0015928.99840721-.4483764 1-1v-15.9425c-.00006238-.357328.1905449-.687536.5-.8662l9.5-5.4813 6-3.47 3-1.73 4.0026-2.3148c1.2361701-.714941 1.997436-2.0346744 1.9974-3.4627v-15.7325h2.9907c.4051368.00000698.7704215-.24393276.9256464-.61815335.155225-.37422059.0698489-.80509229-.2163464-1.09184665l-5.99-6c-.3925114-.3911814-1.0274886-.3911814-1.42 0l-5.99 6c-.2861953.28675436-.3715714.71762606-.2163464 1.09184665.1552249.37422059.5205096.61816033.9256464.61815335h2.9907v14.0023c-.0000407.3574311-.1908524.6876631-.5005.8662l-8.4995 4.9015-6 3.47-4 2.31-3.9983 2.3056c-1.23856762.7142773-2.00170624 2.0353302-2.0017 3.4651v17.6793c.00159279.5516236.44837635.9984072 1 1z"/><path id="Shape" d="m6.29 1.29-5.99 6c-.28536612.28716111-.37011982.71772391-.21487806 1.09161604.15524176.37389212.52003861.61779943.92487806.61838396h2.99v15.16c-.0023031 1.4286067.76090836 2.7489625 2 3.46l4 2.31 2 1.16 1-.58 5-2.89-7.5-4.33c-.3101329-.1798408-.50073973-.5114968-.5-.87v-13.42h2.99c.4048395-.00058453.7696363-.24449184.9248781-.61838396.1552417-.37389213.070488-.80445493-.2148781-1.09161604l-5.99-6c-.39300794-.38997787-1.02699206-.38997787-1.42 0z"/></g></g></svg>