<svg height="512" viewBox="0 0 58 58" width="512" xmlns="http://www.w3.org/2000/svg"><g id="Page-1" fill="none" fill-rule="evenodd"><g id="031---Car-Ferry" fill="rgb(0,0,0)" fill-rule="nonzero" transform="translate(0 -1)"><path id="Shape" d="m3 48h5.22l-2.74 5.1c-.68276782 1.2581122-.64075606 2.7852629.11014782 4.0039349s2.096086 1.9428539 3.52684356 1.8986843c1.43075752-.0441697 2.72870752-.849949 3.40300862-2.1126192l4.79-8.89h23.38l4.79 8.89c.6743011 1.2626702 1.9722511 2.0684495 3.4030086 2.1126192 1.4307576.0441696 2.7759397-.6800123 3.5268436-1.8986843s.7929156-2.7458227.1101478-4.0039349l-2.74-5.1h5.22c.795975.0010634 1.5596548-.3146656 2.1224946-.8775054s.8785688-1.3265196.8775054-2.1224946v-10c-.0015928-.5516236-.4483764-.9984072-1-1h-4c-.5516236.0015928-.9984072.4483764-1 1v6c-.0015928.5516236-.4483764.9984072-1 1h-6c1.1045695 0 2-.8954305 2-2v-5h-7v5c0 1.1045695.8954305 2 2 2h-26c1.1045695 0 2-.8954305 2-2v-5h-7v5c0 1.1045695.8954305 2 2 2h-6c-.55162365-.0015928-.99840721-.4483764-1-1v-6c-.00159279-.5516236-.44837635-.9984072-1-1h-4c-.55162365.0015928-.99840721.4483764-1 1v10c-.00106343.795975.31466559 1.5596548.87750541 2.1224946s1.32651959.8785688 2.12249459.8775054z"/><circle id="Oval" cx="43.5" cy="23.5" r="1.5"/><path id="Shape" d="m7 18v13c.0032402 1.1032246.89677542 1.9967598 2 2h40c1.1032246-.0032402 1.9967598-.8967754 2-2v-13c-.0032402-1.1032246-.8967754-1.9967598-2-2h-40c-1.10322458.0032402-1.9967598.8967754-2 2zm36.5 2c1.9329966 0 3.5 1.5670034 3.5 3.5s-1.5670034 3.5-3.5 3.5-3.5-1.5670034-3.5-3.5c.0020943-1.9321285 1.5678715-3.4979057 3.5-3.5zm-29 0c1.9329966 0 3.5 1.5670034 3.5 3.5s-1.5670034 3.5-3.5 3.5-3.5-1.5670034-3.5-3.5c.0020943-1.9321285 1.5678715-3.4979057 3.5-3.5z"/><circle id="Oval" cx="14.5" cy="23.5" r="1.5"/><path id="Shape" d="m49 14-3.77-10.22c-.8761955-1.75807054-2.6967332-2.84414241-4.66-2.78h-23.14c-1.9632668-.06414241-3.7838045 1.02192946-4.66 2.78l-3.77 10.22h5.1l2.38-8.28c.1241551-.42686691.5154443-.72033384.96-.72h23.12c.4445557-.00033384.8358449.29313309.96.72l2.38 8.28z"/><path id="Shape" d="m18.19 7-2.01 7h25.64l-2.01-7z"/></g></g></svg>