<svg height="512" viewBox="0 0 60 57" width="512" xmlns="http://www.w3.org/2000/svg"><g id="Page-1" fill="none" fill-rule="evenodd"><g id="032---Ferry" fill="rgb(0,0,0)" fill-rule="nonzero"><path id="Shape" d="m58.5259 44.48c-4.2638067 2.4288877-9.110429 3.6460846-14.0159 3.52-5.3761557.1033295-10.6674916-1.3502216-15.2364-4.1855-4.1226725-2.5920008-8.9149103-3.9182139-13.7836-3.8145-6.8767 0-10.2224 1.853-13.7644 3.8149l-1.21.67c-.48324912.2675267-.65812668.8761508-.39059995 1.3594.26752672.4832491.8761508.6581267 1.35939995.3906l1.21-.67c3.31-1.8335 6.4356-3.5649 12.7956-3.5649s9.4966 1.7319 12.8179 3.5664c4.8594168 3.0110521 10.4866292 4.5509024 16.2021 4.4336 5.2375776.1340899 10.4121693-1.1661023 14.9643-3.76.3200783-.1663928.525727-.4922819.5381578-.8528123s-.1702834-.6998099-.4781409-.8878535c-.3078576-.1880437-.6931321-.1956994-1.0082169-.0200342z"/><path id="Shape" d="m58.5259 51.48c-4.2638067 2.4288877-9.110429 3.6460846-14.0159 3.52-5.3761557.1033295-10.6674916-1.3502216-15.2364-4.1855-4.1226725-2.5920008-8.9149103-3.9182139-13.7836-3.8145-6.8767 0-10.2224 1.853-13.7644 3.8149l-1.21.67c-.48324912.2675267-.65812668.8761508-.39059995 1.3594.26752672.4832491.8761508.6581267 1.35939995.3906l1.21-.67c3.31-1.8335 6.4356-3.5649 12.7956-3.5649s9.4966 1.7319 12.8179 3.5664c4.8594168 3.0110521 10.4866292 4.5509024 16.2021 4.4336 5.2375776.1340899 10.4121693-1.1661023 14.9643-3.76.3200783-.1663928.525727-.4922819.5381578-.8528123s-.1702834-.6998099-.4781409-.8878535c-.3078576-.1880437-.6931321-.1956994-1.0082169-.0200342z"/><path id="Shape" d="m58.52 36.77-1.21.67c-2.985364 1.8793875-6.3618498 3.0493552-9.87 3.42.3955036-5.1501777 1.4749889-10.2247672 3.21-15.09.1868201-.4887558-.0358144-1.0387941-.51-1.26l-4.14-1.96-15.57-7.35c-.2719298-.1299935-.5880702-.1299935-.86 0l-15.57 7.35-4.14 1.96c-.47418561.2212059-.69682015.7712442-.51 1.26.8993909 2.4211413 1.5951391 4.9131241 2.08 7.45-3.83925317.4125431-7.55097378 1.618001-10.9 3.54-.31439372.1679148-.515324.4908016-.52710236.8470319-.01177835.3562304.16738464.6916845.47000001.88.30261536.1883156.68270863.2008829.99710235.0329681 3.71778051-2.1204446 7.89298382-3.3109093 12.17-3.47.59-.03 1.21-.05 1.85-.05 5.3780772-.1047051 10.6713585 1.3506 15.24 4.19 3.2833583 2.0493451 6.9973852 3.3090335 10.85 3.68.91.08 1.88.13 2.93.13 6.88 0 10.22-1.85 13.76-3.81l1.21-.67c.4842519-.2665125.6628515-.8737512.4-1.36-.1273963-.2333389-.3429471-.405928-.5984983-.4792111s-.5298081-.0411535-.7615017.0892111z"/><path id="Shape" d="m30 13.1c.4501312.0031067.8940264.105544 1.3.3l14.7 6.94v-10.34c-.0032402-1.10322458-.8967754-1.9967598-2-2h-28c-1.1032246.0032402-1.9967598.89677542-2 2v10.33l14.72-6.94c.400471-.1886857.8373106-.2876572 1.28-.29z"/><path id="Shape" d="m26 2v4h8v-4c0-1.1045695-.8954305-2-2-2h-4c-1.1045695 0-2 .8954305-2 2z"/></g></g></svg>