<svg height="512" viewBox="0 0 57 58" width="512" xmlns="http://www.w3.org/2000/svg"><g id="Page-1" fill="none" fill-rule="evenodd"><g id="033---North-Direction" fill="rgb(0,0,0)" fill-rule="nonzero"><path id="Shape" d="m1.97 57.73 14.12-12.83c-.0603414-.1281968-.0910993-.2683162-.09-.41v-12.49c0-.5522847.4477153-1 1-1s1 .4477153 1 1v12.49c.0010993.1416838-.0296586.2818032-.09.41l14.12 12.83c.4362636.3412865 1.0480331.3446527 1.4880258.0081876.4399928-.336465.5970332-.9277446.3819742-1.4381876l-15.78-40.54c-.0300116-.0783559-.0703694-.1523453-.12-.22v11.46c0 .5522847-.4477153 1-1 1s-1-.4477153-1-1v-11.46c-.0496306.0676547-.0899884.1416441-.12.22l-15.78 40.54c-.21505899.510443-.05801861 1.1017226.38197416 1.4381876.43999278.3364651 1.05176229.3330989 1.48802584-.0081876z"/><path id="Shape" d="m52.4987 30h3.5013c.5522847 0 1-.4477153 1-1v-28c0-.55228475-.4477153-1-1-1h-4c-.5522847 0-1 .44771525-1 1v17.91l-14.2891-18.5208c-.1893426-.24544634-.4818088-.38920467-.7918-.3892h-3.9191c-.5522847 0-1 .44771525-1 1v28c0 .5522847.4477153 1 1 1h4c.5522847 0 1-.4477153 1-1v-18.91l14.7 19.5117c.1889345.2507997.4846988.398293.7987.3983z"/></g></g></svg>