<svg height="512" viewBox="0 0 58 50" width="512" xmlns="http://www.w3.org/2000/svg"><g id="Page-1" fill="none" fill-rule="evenodd"><g id="034---Traffic" fill="rgb(0,0,0)" fill-rule="nonzero"><path id="Shape" d="m24 50c1.1045695 0 2-.8954305 2-2v-4h-7v4c0 1.1045695.8954305 2 2 2z"/><path id="Shape" d="m47 48c0 1.1045695.8954305 2 2 2h3c1.1045695 0 2-.8954305 2-2v-4h-7z"/><circle id="Oval" cx="50.5" cy="33.5" r="1.5"/><path id="Shape" d="m56 26h-39c-1.1032246.0032402-1.9967598.8967754-2 2v12c.0032402 1.1032246.8967754 1.9967598 2 2h39c1.1032246-.0032402 1.9967598-.8967754 2-2v-12c-.0032402-1.1032246-.8967754-1.9967598-2-2zm-33.5 11c-1.9329966 0-3.5-1.5670034-3.5-3.5s1.5670034-3.5 3.5-3.5 3.5 1.5670034 3.5 3.5c-.0020943 1.9321285-1.5678715 3.4979057-3.5 3.5zm28 0c-1.9329966 0-3.5-1.5670034-3.5-3.5s1.5670034-3.5 3.5-3.5 3.5 1.5670034 3.5 3.5c-.0020943 1.9321285-1.5678715 3.4979057-3.5 3.5z"/><circle id="Oval" cx="22.5" cy="33.5" r="1.5"/><path id="Shape" d="m56 24-3.77-10.22c-.8761955-1.7580705-2.6967332-2.8441424-4.66-2.78h-22.14c-1.9632668-.0641424-3.7838045 1.0219295-4.66 2.78l-3.77 10.22h5.1l2.38-8.28c.1241551-.4268669.5154443-.7203338.96-.72h22.12c.4445557-.0003338.8358449.2931331.96.72l2.38 8.28z"/><path id="Shape" d="m26.19 17-2.01 7h24.64l-2.01-7z"/><path id="Shape" d="m11 37v-4h-7v4c0 1.1045695.8954305 2 2 2h3c1.1045695 0 2-.8954305 2-2z"/><path id="Shape" d="m13 28c-.0039507-1.2396017.573518-2.4093461 1.56-3.16l3.63-9.84h-16.19c-1.10322458.0032402-1.9967598.8967754-2 2v12c.0032402 1.1032246.89677542 1.9967598 2 2h11zm-5.5-2c-1.41561786 0-2.69184486-.8527476-3.23357836-2.160608s-.24228836-2.8132727.75870463-3.8142657c1.00099298-1.000993 2.50640538-1.3004382 3.81426574-.7587047 1.30786039.5417335 2.16060799 1.8179605 2.16060799 3.2335784-.0020943 1.9321285-1.56787154 3.4979057-3.5 3.5z"/><circle id="Oval" cx="7.5" cy="22.5" r="1.5"/><path id="Shape" d="m7.1 13 2.38-8.28c.12415509-.42686691.51544434-.72033384.96-.72h22.12c.4458834-.00435212.8393307.29073339.96.72l1.23 4.28h4.33l-1.85-5.79c-.7375379-1.93269402-2.5913608-3.20968358-4.66-3.21h-22.14c-2.06863922.00031642-3.92246208 1.27730598-4.66 3.21l-3.77 9.79z"/><path id="Shape" d="m18.94 12.97c1.188325-2.4899323 3.7320829-4.04597524 6.49-3.97h7.24l-.86-3h-20.62l-2.01 7h9.75z"/></g></g></svg>