<svg height="512" viewBox="0 0 58 42" width="512" xmlns="http://www.w3.org/2000/svg"><g id="Page-1" fill="none" fill-rule="evenodd"><g id="035---Motorway" fill="rgb(0,0,0)" fill-rule="nonzero"><path id="Shape" d="m17.1934 0h-3.0776c-.2833 0-.62.3242-.7511.7241l-13.3367 40.5529c-.1315.4.213.7236.77.723l6.0464-.007c.5067998.0331429.97916626-.2577293 1.1777-.7252l9.5144-40.5438c.0935-.3998-.0598-.724-.3431-.724z"/><path id="Shape" d="m21.29 0c-.25 0-.5.32-.57.72l-6.71 40.54c-.07.4.27.73.77.73l10.42-.02c-.1407145-.2461397-.2099769-.5266526-.2-.81l.13-6.38c.0552812-1.0205575.9186636-1.8082826 1.94-1.77l1.92-.01 1.94.01c1.0213364-.0382826 1.8847188.7494425 1.94 1.77l.13 6.38c.0099769.2833474-.0592855.5638603-.2.81l10.42.02c.5 0 .84-.33.77-.73l-6.71-40.54c-.07-.4-.32-.72-.57-.72h-4.65l.15 6.27c.0137358.46708807-.1589704.92044161-.48 1.26-.2892908.29712865-.6853179.46634024-1.1.47h-3.26c-.4146821-.00365976-.8107092-.17287135-1.1-.47-.3210296-.33955839-.4937358-.79291193-.48-1.26l.15-6.27zm11.44 28.28c.0101133.4330111-.1558785.8515992-.46 1.16-.37225.3612923-.8712546.5623302-1.39.56h-3.76c-.5187454.0023302-1.01775-.1987077-1.39-.56-.3041215-.3084008-.4701133-.7269889-.46-1.16l.13-5.6c.0484095-.9539487.8449826-1.6974169 1.8-1.68h3.6c.9550174-.0174169 1.7515905.7260513 1.8 1.68zm-5.4-18.28h3.34c.8905016-.01662015 1.6316716.6801684 1.67 1.57l.13 4.8c.0123849.4147935-.1467882.816344-.44 1.11-.3398861.337643-.8009375.5249451-1.28.52h-3.5c-.4790625.0049451-.9401139-.182357-1.28-.52-.2932118-.293656-.4523849-.6952065-.44-1.11l.13-4.8c.0383284-.8898316.7794984-1.58662015 1.67-1.57z"/><path id="Shape" d="m51.1561 41.993 6.0464.007c.5565.0006.901-.3231.77-.723l-13.3372-40.5529c-.1315-.4-.4678-.7241-.7511-.7241h-3.0776c-.2833 0-.4369.3242-.3431.724l9.5149 40.5438c.1985337.4674707.6709002.7583429 1.1777.7252z"/></g></g></svg>