<svg height="512" viewBox="0 0 58 58" width="512" xmlns="http://www.w3.org/2000/svg"><g id="Page-1" fill="none" fill-rule="evenodd"><g id="036---Final-Destination" fill="rgb(0,0,0)" fill-rule="nonzero" transform="translate(-1)"><path id="Shape" d="m26.99 8c-1.19.19-2.38.39-3.56.6l2.75 7.41c1.48-.28 2.95-.54 4.41-.8 1.02-.18 2.04-.36 3.04-.55l-2.71-7.33c-1.3.23-2.62.45-3.93.67z"/><path id="Shape" d="m14.04 10.51 2.92 7.88c2.3684514-.8116989 4.7868083-1.4697325 7.24-1.97l-2.87-7.75c-2.4695478.44437724-4.9053705 1.05918023-7.29 1.84z"/><path id="Shape" d="m33.88 24.09c1.02-.18 2.04-.37 3.05-.55l-2.59-6.98c-1.13.22-2.27.42-3.4.62-1.37.24-2.72.48-4.06.74l2.59 6.98c1.47-.29 2.94-.55 4.41-.81z"/><path id="Shape" d="m27.49 25.31-2.59-6.99c-2.4568236.485995-4.8787844 1.1340783-7.25 1.94l2.61 7.02c2.3654463-.8104268 4.7803945-1.4684417 7.23-1.97z"/><path id="Shape" d="m53.07 9.71c-2.3404644 1.6382497-4.8854484 2.9628517-7.57 3.94l2.6 7.03c2.6899824-.9828783 5.2282178-2.3395214 7.54-4.03-.85-2.31-1.71-4.63-2.57-6.94z"/><path id="Shape" d="m9.3 22.11c1.8208677-1.2006033 3.7612265-2.2093218 5.79-3.01l-2.95-7.95c-2.0289063.8016453-3.96653048 1.8173895-5.78 3.03z"/><path id="Shape" d="m35.64 14.28c2.4593887-.4673395 4.8900267-1.074999 7.28-1.82l-2.83-7.63c-2.3757366.78147012-4.80117 1.40286216-7.26 1.86z"/><path id="Shape" d="m18.38 27.98-2.6-7.02c-2.02544.8118748-3.9567547 1.8412387-5.76 3.07l2.57 6.96c1.8265253-1.1909448 3.7658819-2.1991423 5.79-3.01z"/><path id="Shape" d="m49.76.77c-.1069044-.27858553-.3375143-.4914495-.6237511-.57575212s-.5954102-.03041594-.8362489.14575212c-1.9963682 1.42151373-4.1590882 2.59354675-6.44 3.49l2.95 7.97c2.6909445-.980726 5.2294728-2.33752556 7.54-4.03-.86-2.33-1.73-4.67-2.59-7z"/><path id="Shape" d="m43.61 14.31c-2.3855489.7592876-4.8129149 1.3803193-7.27 1.86l2.59 6.98c2.4597135-.4616467 4.8904867-1.0660011 7.28-1.81z"/><path id="Shape" d="m22.02 37.79-2.95-7.95c-2.0264313.8097425-3.9579721 1.8392269-5.76 3.07l2.93 7.91c1.8089294-1.2202341 3.7474065-2.2364254 5.78-3.03z"/><path id="Shape" d="m31.15 35.18-2.96-7.99c-2.4554326.491963-4.877009 1.1399434-7.25 1.94l2.95 7.96c2.3770866-.789848 4.8019755-1.4278008 7.26-1.91z"/><path id="Shape" d="m37.04 34c1.18-.2 2.37-.39 3.54-.6l-2.95-7.96c-1.14.22-2.27.42-3.4.62-1.37.24-2.72.48-4.06.74l2.92 7.87c1.31-.24 2.63-.45 3.95-.67z"/><path id="Shape" d="m46.9 23.21c-2.386577.7503584-4.8138123 1.3646793-7.27 1.84l2.97 8.02c2.4586132-.4753527 4.8837262-1.1100242 7.26-1.9z"/><path id="Shape" d="m56.36 18.59c-2.3386523 1.6464275-4.8838457 2.9778629-7.57 3.96l2.94 7.93c2.4593534-.9656983 4.7796218-2.2536153 6.9-3.83.3316564-.2601659.4570017-.7049395.31-1.1z"/><path id="Shape" d="m17.3763 57.512.6887-.2552c1.0353968-.3839858 1.5636363-1.5344737 1.18-2.57l-14.5543-39.2768-3.3607 2.6863c-.31895999.2549703-.43851566.6857093-.2966 1.0686l13.7726 37.1667c.383822 1.0357163 1.5345734 1.5641943 2.5703 1.1804z"/></g></g></svg>