<svg height="512" viewBox="0 0 58 58" width="512" xmlns="http://www.w3.org/2000/svg"><g id="Page-1" fill="none" fill-rule="evenodd"><g id="038---Home" fill="rgb(0,0,0)" fill-rule="nonzero" transform="translate(0 -1)"><path id="Shape" d="m16 4h-8c-.55162365.00159279-.99840721.44837635-1 1v13.01l-6.61 5.2c-.3430693.2718871-.4705419.7346498-.31508769 1.1438601.15545421.4092104.55802919.6706142.99508769.6461399h5.93v32c.0032402 1.1032246.89677542 1.9967598 2 2h11c1.1032246-.0032402 1.9967598-.8967754 2-2v-19c.0032402-1.1032246.8967754-1.9967598 2-2h10c1.1032246.0032402 1.9967598.8967754 2 2v19c.0032402 1.1032246.8967754 1.9967598 2 2h11c1.1032246-.0032402 1.9967598-.8967754 2-2v-32h5.93c.4370585.0244743.8396335-.2369295.9950877-.6461399.1554542-.4092103.0279816-.871973-.3150877-1.1438601l-27.93-21.98c-.400342-.30998539-.959658-.30998539-1.36 0l-11.32 8.91v-5.14c-.0015928-.55162365-.4483764-.99840721-1-1z"/></g></g></svg>