<svg height="512" viewBox="0 0 56 56" width="512" xmlns="http://www.w3.org/2000/svg"><g id="Page-1" fill="none" fill-rule="evenodd"><g id="039---GPS-Location" fill="rgb(0,0,0)" fill-rule="nonzero" transform="translate(-1 -1)"><path id="Shape" d="m23 30h-22.11l20.74 5.16c.0420631-.1774923.1319901-.3400527.26-.47l5.69-5.69-5.69-5.69c-.129955-.1284842-.2202099-.2916373-.26-.47l-20.74 5.16h22.11c.5522847 0 1 .4477153 1 1s-.4477153 1-1 1z"/><path id="Shape" d="m22.84 21.63c.1783204.0399016.3414438.1301401.47.26l5.69 5.69 5.69-5.69c.1285562-.1298599.2916796-.2200984.47-.26l-5.16-20.74v22.11c0 .5522847-.4477153 1-1 1s-1-.4477153-1-1v-22.11z"/><path id="Shape" d="m29 30.42-5.69 5.69c-.1314752.1259496-.2934412.2155478-.47.26l5.16 20.74v-22.11c0-.5522847.4477153-1 1-1s1 .4477153 1 1v22.11l5.16-20.74c-.1765588-.0444522-.3385248-.1340504-.47-.26z"/><path id="Shape" d="m35 28h22.11l-20.74-5.16c-.0397901.1783627-.130045.3415158-.26.47l-5.69 5.69 5.69 5.69c.129955.1284842.2202099.2916373.26.47l20.74-5.16h-22.11c-.5522847 0-1-.4477153-1-1s.4477153-1 1-1z"/><path id="Shape" d="m20.95 20.95 1.12-4.51-10.96-6.59c-.3615976-.20548227-.8159121-.14408858-1.11000034.14999966s-.35548193.74840274-.14999966 1.11000034l6.59 10.96z"/><path id="Shape" d="m11.11 48.15 10.96-6.59-1.12-4.51-4.51-1.12-6.59 10.96c-.20548227.3615976-.14408858.8159121.14999966 1.1100003.29408824.2940883.74840274.355482 1.11000034.1499997z"/><path id="Shape" d="m48.15 46.89-6.59-10.96-4.51 1.12-1.12 4.51 10.96 6.59c.3615976.2054823.8159121.1440886 1.1100003-.1499997.2940883-.2940882.355482-.7484027.1499997-1.1100003z"/><path id="Shape" d="m41.56 22.07 6.59-10.96c.2054823-.3615976.1440886-.8159121-.1499997-1.11000034-.2940882-.29408824-.7484027-.35548193-1.1100003-.14999966l-10.96 6.59 1.12 4.51z"/></g></g></svg>