<svg height="512" viewBox="0 0 58 41" width="512" xmlns="http://www.w3.org/2000/svg"><g id="Page-1" fill="none" fill-rule="evenodd"><g id="040---Speed-Camera" fill="rgb(0,0,0)" fill-rule="nonzero"><circle id="Oval" cx="23.5" cy="8.5" r="3.5"/><path id="Shape" d="m4 41h25c1.0609554.0002919 2.0785407-.4210417 2.8287495-1.1712505s1.1715424-1.7677941 1.1712505-2.8287495v-33c.0002919-1.06095541-.4210417-2.07854066-1.1712505-2.82874946-.7502088-.75020879-1.7677941-1.17154242-2.8287495-1.17125054h-25c-1.06095541-.00029188-2.07854066.42104175-2.82874946 1.17125054-.75020879.7502088-1.17154242 1.76779405-1.17125054 2.82874946v33c-.00029188 1.0609554.42104175 2.0785407 1.17125054 2.8287495.7502088.7502088 1.76779405 1.1715424 2.82874946 1.1712505zm19.5-38c3.0375661 0 5.5 2.46243388 5.5 5.5 0 3.0375661-2.4624339 5.5-5.5 5.5s-5.5-2.4624339-5.5-5.5c.0055037-3.03528349 2.4647165-5.4944963 5.5-5.5zm-13 21c3.5898509 0 6.5 2.9101491 6.5 6.5s-2.9101491 6.5-6.5 6.5c-3.58985087 0-6.5-2.9101491-6.5-6.5.00693307-3.5869752 2.91302482-6.4930669 6.5-6.5z"/><circle id="Oval" cx="10.5" cy="30.5" r="4.5"/><path id="Shape" d="m57.3333 17h-3.3333v14h3.3333c.3667 0 .6667-.45.6667-1v-12c0-.55-.3-1-.6667-1z"/><path id="Shape" d="m52 36v-22c-.0015928-.5516236-.4483764-.9984072-1-1h-3c-.5516236.0015928-.9984072.4483764-1 1v17h-2v-21.8462h-3v21.8462h-2v-26h-3c-.562114.0124652-1.0087688.4763162-1 1.0385v24.9615h-1v6h16c.5516236-.0015928.9984072-.4483764 1-1z"/></g></g></svg>