<svg height="512" viewBox="0 0 38 58" width="512" xmlns="http://www.w3.org/2000/svg"><g id="Page-1" fill="none" fill-rule="evenodd"><g id="042---Fuel-Location" fill="rgb(0,0,0)" fill-rule="nonzero"><path id="Shape" d="m.42 53.26 7.46 4.66c.07541559.0482265.1709734.0520489.25.01l10.75-5.79c.075-.04.165-.04.24 0l10.75 5.79c.0790266.0420489.1745844.0382265.25-.01l7.46-4.66c.0791194-.0495242.123664-.1393345.1152133-.2322921s-.0684603-.173263-.1552133-.2077079l-11.02-4.33c-.0912087-.0377843-.1522606-.1249962-.1565489-.2236283-.0042884-.0986321.0489638-.1908137.1365489-.2363717l6.99-3.76c.0873916-.0459777.1386017-.1399602.1298585-.2383208-.0087432-.0983605-.0757273-.1818368-.1698585-.2116792l-5.36-1.79c-.0548954-.0200372-.1151046-.0200372-.17 0l-3.94 1.55-3.05 5.09c-.4078705.676438-1.1401096 1.0899716-1.93 1.0899716s-1.5221295-.4135336-1.93-1.0899716l-3.05-5.09-3.94-1.55c-.0548954-.0200372-.11510461-.0200372-.17 0l-5.36 1.79c-.09413117.0298424-.16111535.1133187-.16985851.2116792-.00874316.0983606.04246691.1923431.12985851.2383208l6.99 3.76c.0875851.045558.1408373.1377396.1365489.2363717-.0042883.0986321-.0653402.185844-.1565489.2236283l-11.02 4.33c-.08675296.0344449-.14676257.1147503-.15521326.2077079s.03609385.1827679.11521326.2322921z"/><path id="Shape" d="m13 38 5.79 9.64c.0438376.074332.1237041.1199515.21.1199515s.1661624-.0456195.21-.1199515l5.79-9.64h9c.795975.0010634 1.5596548-.3146656 2.1224946-.8775054s.8785688-1.3265196.8775054-2.1224946v-32c.0010634-.795975-.3146656-1.55965477-.8775054-2.12249459s-1.3265196-.87856884-2.1224946-.87750541h-30c-.795975-.00106343-1.55965477.31466559-2.12249459.87750541s-.87856884 1.32651959-.87750541 2.12249459v32c-.00106343.795975.31466559 1.5596548.87750541 2.1224946s1.32651959.8785688 2.12249459.8775054zm-3-10c.0032402-1.1032246.8967754-1.9967598 2-2v-19c.004833-1.65484823 1.3451518-2.99516701 3-3h8c1.6548482.00483299 2.995167 1.34515177 3 3v11h1c1.6558495.0024233 2.9975767 1.3441505 3 3-.0044344.260503.1007969.5108809.29.69.1817537.1996824.4399972.3124366.71.31.5516236-.0015928.9984072-.4483764 1-1v-5h-.88c-.8285356.003474-1.6241398-.3241237-2.2100081-.9099919-.5858682-.5858683-.9134659-1.3814725-.9099919-2.2100081-.0032697-.8284948.3243004-1.624022.91-2.21l1.39-1.39-2.17-3.78c-.2761424-.48048773-.1104877-1.09385763.37-1.37s1.0938576-.11048773 1.37.37l2.51 4.38c.0392365.06004628.0727183.12366169.1.19l1.13 1.97c.2568237.4545187.3912098.9679424.39 1.49v8.47c-.004833 1.6548482-1.3451518 2.995167-3 3-1.6558495-.0024233-2.9975767-1.3441505-3-3 .0044344-.260503-.1007969-.5108809-.29-.69-.1817537-.1996824-.4399972-.3124366-.71-.31h-1v6c1.1032246.0032402 1.9967598.8967754 2 2v3c-.0032402 1.1032246-.8967754 1.9967598-2 2h-14c-1.1032246-.0032402-1.9967598-.8967754-2-2z"/><path id="Rectangle-path" d="m12 28h14v3h-14z"/><path id="Shape" d="m24 7c-.0015928-.55162365-.4483764-.99840721-1-1h-8c-.5516236.00159279-.9984072.44837635-1 1v6h10z"/><path id="Rectangle-path" d="m14 15h10v11h-10z"/><path id="Shape" d="m32 12.53c.0032922-.1754291-.0416778-.3483907-.13-.5l-.54-.94-1 1c-.3186724.3202459-.4137337.8005979-.2410573 1.2180813s.5792753.6903425 1.0310573.6919187h.88z"/></g></g></svg>