<svg height="512" viewBox="0 0 38 58" width="512" xmlns="http://www.w3.org/2000/svg"><g id="Page-1" fill="none" fill-rule="evenodd"><g id="043---Service-Location" fill="rgb(0,0,0)" fill-rule="nonzero"><path id="Shape" d="m.42 53.26 7.46 4.66c.07541559.0482265.1709734.0520489.25.01l10.75-5.79c.075-.04.165-.04.24 0l10.75 5.79c.0790266.0420489.1745844.0382265.25-.01l7.46-4.66c.0791194-.0495242.123664-.1393345.1152133-.2322921s-.0684603-.173263-.1552133-.2077079l-11.02-4.33c-.0912087-.0377843-.1522606-.1249962-.1565489-.2236283-.0042884-.0986321.0489638-.1908137.1365489-.2363717l6.99-3.76c.0873916-.0459777.1386017-.1399602.1298585-.2383208-.0087432-.0983605-.0757273-.1818368-.1698585-.2116792l-5.36-1.79c-.0548954-.0200372-.1151046-.0200372-.17 0l-3.94 1.55-3.05 5.09c-.4078705.676438-1.1401096 1.0899716-1.93 1.0899716s-1.5221295-.4135336-1.93-1.0899716l-3.05-5.09-3.94-1.55c-.0548954-.0200372-.11510461-.0200372-.17 0l-5.36 1.79c-.09413117.0298424-.16111535.1133187-.16985851.2116792-.00874316.0983606.04246691.1923431.12985851.2383208l6.99 3.76c.0875851.045558.1408373.1377396.1365489.2363717-.0042883.0986321-.0653402.185844-.1565489.2236283l-11.02 4.33c-.08675296.0344449-.14676257.1147503-.15521326.2077079s.03609385.1827679.11521326.2322921z"/><path id="Shape" d="m13 38 5.79 9.64c.0438376.074332.1237041.1199515.21.1199515s.1661624-.0456195.21-.1199515l5.79-9.64h9c.795975.0010634 1.5596548-.3146656 2.1224946-.8775054s.8785688-1.3265196.8775054-2.1224946v-32c.0010634-.795975-.3146656-1.55965477-.8775054-2.12249459s-1.3265196-.87856884-2.1224946-.87750541h-30c-.795975-.00106343-1.55965477.31466559-2.12249459.87750541s-.87856884 1.32651959-.87750541 2.12249459v32c-.00106343.795975.31466559 1.5596548.87750541 2.1224946s1.32651959.8785688 2.12249459.8775054zm-9-19c.00216065-1.362947.92181373-2.5535693 2.24-2.9l2.07-6.48c.58730018-1.56526633 2.0782317-2.60693046 3.75-2.62h13.88c1.6506923.00759922 3.1293567 1.02244664 3.73 2.56l2.09 6.54c1.3181863.3464307 2.2378393 1.537053 2.24 2.9v7c-.004833 1.6548482-1.3451518 2.995167-3 3v2c-.004833 1.6548482-1.3451518 2.995167-3 3h-1c-1.6548482-.004833-2.995167-1.3451518-3-3v-2h-10v2c-.004833 1.6548482-1.3451518 2.995167-3 3h-1c-1.65484823-.004833-2.99516701-1.3451518-3-3v-2c-1.65484823-.004833-2.99516701-1.3451518-3-3z"/><path id="Shape" d="m7 27h24c.5516236-.0015928.9984072-.4483764 1-1v-3h-3c-.5522847 0-1-.4477153-1-1s.4477153-1 1-1h3v-2c-.0015928-.5516236-.4483764-.9984072-1-1h-24c-.55162365.0015928-.99840721.4483764-1 1v2h3c.55228475 0 1 .4477153 1 1s-.44771525 1-1 1h-3v3c.00159279.5516236.44837635.9984072 1 1z"/><path id="Shape" d="m26 31c.0015928.5516236.4483764.9984072 1 1h1c.5516236-.0015928.9984072-.4483764 1-1v-2h-3z"/><path id="Shape" d="m27.79 10.23c-.3144163-.74372218-1.0425499-1.22783263-1.85-1.23h-13.88c-.8255089.00707874-1.5646438.51301068-1.87 1.28l-1.82 5.72h21.26z"/><path id="Shape" d="m9 31c.00159279.5516236.44837635.9984072 1 1h1c.5516236-.0015928.9984072-.4483764 1-1v-2h-3z"/></g></g></svg>