<svg height="512" viewBox="0 0 38 58" width="512" xmlns="http://www.w3.org/2000/svg"><g id="Page-1" fill="none" fill-rule="evenodd"><g id="044---Favourite-Location" fill="rgb(0,0,0)" fill-rule="nonzero"><path id="Shape" d="m37.54 52.82-11.02-4.33c-.0912087-.0377843-.1522606-.1249962-.1565489-.2236283-.0042884-.0986321.0489638-.1908137.1365489-.2363717l6.99-3.76c.0873916-.0459777.1386017-.1399602.1298585-.2383208-.0087432-.0983605-.0757273-.1818368-.1698585-.2116792l-5.36-1.79c-.0548954-.0200372-.1151046-.0200372-.17 0l-3.94 1.55-3.05 5.09c-.4078705.676438-1.1401096 1.0899716-1.93 1.0899716s-1.5221295-.4135336-1.93-1.0899716l-3.05-5.09-3.94-1.55c-.0548954-.0200372-.11510461-.0200372-.17 0l-5.36 1.79c-.09413117.0298424-.16111535.1133187-.16985851.2116792-.00874316.0983606.04246691.1923431.12985851.2383208l6.99 3.76c.0875851.045558.1408373.1377396.1365489.2363717-.0042883.0986321-.0653402.185844-.1565489.2236283l-11.02 4.33c-.08675296.0344449-.14676257.1147503-.15521326.2077079s.03609385.1827679.11521326.2322921l7.46 4.66c.07541559.0482265.1709734.0520489.25.01l10.75-5.79c.075-.04.165-.04.24 0l10.75 5.79c.0790266.0420489.1745844.0382265.25-.01l7.46-4.66c.0791194-.0495242.123664-.1393345.1152133-.2322921s-.0684603-.173263-.1552133-.2077079z"/><path id="Shape" d="m1 3v32c-.00106343.795975.31466559 1.5596548.87750541 2.1224946s1.32651959.8785688 2.12249459.8775054h9l5.79 9.64c.0438376.074332.1237041.1199515.21.1199515s.1661624-.0456195.21-.1199515l5.79-9.64h9c.795975.0010634 1.5596548-.3146656 2.1224946-.8775054s.8785688-1.3265196.8775054-2.1224946v-32c.0010634-.795975-.3146656-1.55965477-.8775054-2.12249459s-1.3265196-.87856884-2.1224946-.87750541h-30c-.795975-.00106343-1.55965477.31466559-2.12249459.87750541s-.87856884 1.32651959-.87750541 2.12249459zm4.67 10.25 8.03-1.13 3.56-7.06c.3360227-.65102947 1.0073673-1.06001559 1.74-1.06001559s1.4039773.40898612 1.74 1.06001559l3.6 7.09 7.99 1.1c.7384921.1028666 1.3526817.6198743 1.58 1.33.0598872.190932.0902377.3898964.09.59-.0036876.5254309-.2201643 1.0269353-.6 1.39l-5.8 5.48 1.39 7.69c.1312296.7215103-.1597542 1.4547895-.75 1.89-.3334816.2451333-.7361196.3781788-1.15.38-.3135537.0020222-.622738-.0735562-.9-.22l-7.21-3.68-7.17 3.68c-.2741151.1452649-.5797738.220821-.89.22-.4172201-.0002-.8235295-.1333014-1.16-.38-.59024584-.4352105-.88122963-1.1684897-.75-1.89l1.37-7.76-5.78-5.41c-.37983572-.3630647-.59631244-.8645691-.6-1.39-.00023769-.2001036.0301128-.399068.09-.59.22731827-.7101257.84150794-1.2271334 1.58-1.33z"/><path id="Shape" d="m12.35 22.32-1.35 7.63 7.11-3.63c.5603014-.2799925 1.2196986-.2799925 1.78 0l7.11 3.63-1.35-7.63c-.108161-.637376.1095059-1.286624.58-1.73l5.68-5.38-7.89-1.11c-.6273805-.0872421-1.1725338-.4755704-1.46-1.04l-3.58-7.03-3.53 7.03c-.2919838.560517-.834841.9472098-1.46 1.04l-7.9 1.11 5.68 5.38c.4704941.443376.688161 1.092624.58 1.73z"/></g></g></svg>