<svg height="512" viewBox="0 0 38 58" width="512" xmlns="http://www.w3.org/2000/svg"><g id="Page-1" fill="none" fill-rule="evenodd"><g id="045---Airport-Location" fill="rgb(0,0,0)" fill-rule="nonzero"><path id="Shape" d="m19 52.11c.0418002.0004429.0829091.0107201.12.03l10.75 5.79c.0790266.0420489.1745844.0382265.25-.01l7.46-4.66c.0791194-.0495242.123664-.1393345.1152133-.2322921s-.0684603-.173263-.1552133-.2077079l-11.02-4.33c-.0912087-.0377843-.1522606-.1249962-.1565489-.2236283-.0042884-.0986321.0489638-.1908137.1365489-.2363717l6.99-3.76c.0873916-.0459777.1386017-.1399602.1298585-.2383208-.0087432-.0983605-.0757273-.1818368-.1698585-.2116792l-5.36-1.79c-.0548954-.0200372-.1151046-.0200372-.17 0l-3.94 1.55-3.05 5.09c-.4078705.676438-1.1401096 1.0899716-1.93 1.0899716s-1.5221295-.4135336-1.93-1.0899716l-3.05-5.09-3.94-1.55c-.0548954-.0200372-.11510461-.0200372-.17 0l-5.36 1.79c-.09413117.0298424-.16111535.1133187-.16985851.2116792-.00874316.0983606.04246691.1923431.12985851.2383208l6.99 3.76c.0875851.045558.1408373.1377396.1365489.2363717-.0042883.0986321-.0653402.185844-.1565489.2236283l-11.02 4.33c-.08675296.0344449-.14676257.1147503-.15521326.2077079s.03609385.1827679.11521326.2322921l7.46 4.66c.07541559.0482265.1709734.0520489.25.01l10.75-5.79c.0370909-.0192799.0781998-.0295571.12-.03z"/><path id="Shape" d="m20.4 11.39-2.26-2.3-2.57.76 1.75 2.45z"/><path id="Shape" d="m13.1 18.56 5.77-1.72c.0906542-.027952.1851454-.0414507.28-.04.2980638.0008917.5802254.1345671.7697076.3646526s.2665718.5326437.2102924.8253474l-.94 4.78 2.06-.61 2.57-6.41c.1113418-.2824699.347968-.4969124.64-.58l5.16-1.54c.6270964-.2447493 1.1910411-.6275481 1.65-1.12.54-.56.66-.97.63-1.08 0 0-.1-.22-1.06-.42-.657367-.1701101-1.3449881-.1872151-2.01-.05l-6.18 1.84-5.36 1.6c-.0704987.0292296-.144423.0493908-.22.06v.01l-4.55 1.36c-.1685383.0500237-.3444982.0703267-.52.06l-5.69-.75.25.84z"/><path id="Shape" d="m13 38 5.79 9.64c.0438376.074332.1237041.1199515.21.1199515s.1661624-.0456195.21-.1199515l5.79-9.64h9c.795975.0010634 1.5596548-.3146656 2.1224946-.8775054s.8785688-1.3265196.8775054-2.1224946v-32c.0010634-.795975-.3146656-1.55965477-.8775054-2.12249459s-1.3265196-.87856884-2.1224946-.87750541h-30c-.795975-.00106343-1.55965477.31466559-2.12249459.87750541s-.87856884 1.32651959-.87750541 2.12249459v32c-.00106343.795975.31466559 1.5596548.87750541 2.1224946s1.32651959.8785688 2.12249459.8775054zm20-8h-22c-.5522847 0-1-.4477153-1-1s.4477153-1 1-1h22c.5522847 0 1 .4477153 1 1s-.4477153 1-1 1zm-28.55-16.43c.31977059-.3789073.8071266-.5738497 1.3-.52l6.29.83 3.26-.97-1.43-2c-.3904534-.5520461-.5013685-1.25450834-.3-1.9.1319702-.4421472.4778528-.78802981.92-.92l3.42-1.02c.534975-.15304561 1.1103221.01411604 1.48.43l3.18 3.24 5.69-1.7c.990269-.23245532 2.0212974-.22902997 3.01.01.58.13 2.14.47 2.54 1.81.0599194.197782.0902477.4033408.09.61-.0707788.9275079-.4928205 1.7930511-1.18 2.42-.6944467.7454113-1.5590919 1.311548-2.52 1.65l-4.71 1.41-2.48 6.2c-.1585954.417885-.5083146.7341204-.94.85l-3.14.94c-.1365136.039504-.2778859.0597-.42.06-.4449137.0011892-.8664039-.1992844-1.146232-.5451831-.2798282-.3458986-.3878519-.7999631-.293768-1.2348169l.78-3.99-4.36 1.3c-.3309206.0975398-.6858956.0726916-1-.07l-6.9-2.71c-.42231391-.1720436-.74525928-.5243476-.88-.96l-.55-1.84c-.03952658-.1399242-.05971396-.2846004-.06-.43.00035931-.3481448.12440385-.6848372.35-.95zm.55 14.43h2c.55228475 0 1 .4477153 1 1s-.44771525 1-1 1h-2c-.55228475 0-1-.4477153-1-1s.44771525-1 1-1z"/></g></g></svg>