<svg height="512" viewBox="0 0 38 58" width="512" xmlns="http://www.w3.org/2000/svg"><g id="Page-1" fill="none" fill-rule="evenodd"><g id="046---Charging-Location" fill="rgb(0,0,0)" fill-rule="nonzero"><path id="Shape" d="m30.12 57.92 7.46-4.66c.0791194-.0495242.123664-.1393345.1152133-.2322921s-.0684603-.173263-.1552133-.2077079l-11.02-4.33c-.0912087-.0377843-.1522606-.1249962-.1565489-.2236283-.0042884-.0986321.0489638-.1908137.1365489-.2363717l6.99-3.76c.0873916-.0459777.1386017-.1399602.1298585-.2383208-.0087432-.0983605-.0757273-.1818368-.1698585-.2116792l-5.36-1.79c-.0548954-.0200372-.1151046-.0200372-.17 0l-3.94 1.55-3.05 5.09c-.4078705.676438-1.1401096 1.0899716-1.93 1.0899716s-1.5221295-.4135336-1.93-1.0899716l-3.05-5.09-3.94-1.55c-.0548954-.0200372-.11510461-.0200372-.17 0l-5.36 1.79c-.09413117.0298424-.16111535.1133187-.16985851.2116792-.00874316.0983606.04246691.1923431.12985851.2383208l6.99 3.76c.0875851.045558.1408373.1377396.1365489.2363717-.0042883.0986321-.0653402.185844-.1565489.2236283l-11.02 4.33c-.08675296.0344449-.14676257.1147503-.15521326.2077079s.03609385.1827679.11521326.2322921l7.46 4.66c.07541559.0482265.1709734.0520489.25.01l10.75-5.79c.075-.04.165-.04.24 0l10.75 5.79c.0790266.0420489.1745844.0382265.25-.01z"/><path id="Shape" d="m1 3v32c-.00106343.795975.31466559 1.5596548.87750541 2.1224946s1.32651959.8785688 2.12249459.8775054h9l5.79 9.64c.0438376.074332.1237041.1199515.21.1199515s.1661624-.0456195.21-.1199515l5.79-9.64h9c.795975.0010634 1.5596548-.3146656 2.1224946-.8775054s.8785688-1.3265196.8775054-2.1224946v-32c.0010634-.795975-.3146656-1.55965477-.8775054-2.12249459s-1.3265196-.87856884-2.1224946-.87750541h-30c-.795975-.00106343-1.55965477.31466559-2.12249459.87750541s-.87856884 1.32651959-.87750541 2.12249459zm4.54 28.58 8.64-18.82c.2210432-.4969202.8029389-.7207262 1.3-.5l4.97 2.12 10.39-10.49c.1891374-.18655296.4443417-.29079133.71-.29.1999317-.00386648.395958.05564152.56.17.400347.26995359.5516159.78678898.36 1.23l-9.12 20.79c-.2132034.4992112-.7874168.7351283-1.29.53l-5.96-2.38-8.95 8.77c-.18632118.1846531-.43768169.2887882-.7.29-.20691613-.0010871-.4088246-.0637483-.58-.18-.26499354-.1887904-.42164703-.4946376-.42-.82-.00004547-.14479.03062995-.2879419.09-.42z"/><path id="Shape" d="m16.24 21.84 5.67 2.27 6.57-14.99-7.08 7.15c-.2911543.291638-.729621.3785413-1.11.22l-4.7-2.01-5.97 13.02 5.55-5.44c.2823971-.2773173.7010992-.3634056 1.07-.22z"/></g></g></svg>