<svg height="512" viewBox="0 0 38 58" width="512" xmlns="http://www.w3.org/2000/svg"><g id="Page-1" fill="none" fill-rule="evenodd"><g id="048---Home-Location" fill="rgb(0,0,0)" fill-rule="nonzero"><path id="Shape" d="m.42 53.26 7.46 4.66c.07541559.0482265.1709734.0520489.25.01l10.75-5.79c.075-.04.165-.04.24 0l10.75 5.79c.0790266.0420489.1745844.0382265.25-.01l7.46-4.66c.0791194-.0495242.123664-.1393345.1152133-.2322921s-.0684603-.173263-.1552133-.2077079l-11.02-4.33c-.0912087-.0377843-.1522606-.1249962-.1565489-.2236283-.0042884-.0986321.0489638-.1908137.1365489-.2363717l6.99-3.76c.0873916-.0459777.1386017-.1399602.1298585-.2383208-.0087432-.0983605-.0757273-.1818368-.1698585-.2116792l-5.36-1.79c-.0548954-.0200372-.1151046-.0200372-.17 0l-3.94 1.55-3.05 5.09c-.4078705.676438-1.1401096 1.0899716-1.93 1.0899716s-1.5221295-.4135336-1.93-1.0899716l-3.05-5.09-3.94-1.55c-.0548954-.0200372-.11510461-.0200372-.17 0l-5.36 1.79c-.09413117.0298424-.16111535.1133187-.16985851.2116792-.00874316.0983606.04246691.1923431.12985851.2383208l6.99 3.76c.0875851.045558.1408373.1377396.1365489.2363717-.0042883.0986321-.0653402.185844-.1565489.2236283l-11.02 4.33c-.08675296.0344449-.14676257.1147503-.15521326.2077079s.03609385.1827679.11521326.2322921z"/><path id="Shape" d="m13 38 5.79 9.64c.0438376.074332.1237041.1199515.21.1199515s.1661624-.0456195.21-.1199515l5.79-9.64h9c.795975.0010634 1.5596548-.3146656 2.1224946-.8775054s.8785688-1.3265196.8775054-2.1224946v-32c.0010634-.795975-.3146656-1.55965477-.8775054-2.12249459s-1.3265196-.87856884-2.1224946-.87750541h-30c-.795975-.00106343-1.55965477.31466559-2.12249459.87750541s-.87856884 1.32651959-.87750541 2.12249459v32c-.00106343.795975.31466559 1.5596548.87750541 2.1224946s1.32651959.8785688 2.12249459.8775054zm-7-22.66c.00359663-.5971841.28441069-1.1588122.76-1.52l11.11-8.44c.6644536-.50293584 1.5811022-.50700984 2.25-.01l11.13 8.46c.470766.3596853.7478542.9175563.75 1.51v15.55c-.0026928 1.0427007-.8472993 1.8873072-1.89 1.89h-6.22c-1.0427007-.0026928-1.8873072-.8472993-1.89-1.89v-9.11h-6v9.11c-.0026928 1.0427007-.8472993 1.8873072-1.89 1.89h-6.22c-1.04270073-.0026928-1.88730716-.8472993-1.89-1.89z"/><path id="Shape" d="m14 30.78v-9.11c-.0003984-.5013812.1985981-.9823416.5531282-1.3368718.3545302-.3545301.8354906-.5535266 1.3368718-.5531282h6.22c.5013812-.0003984.9823416.1985981 1.3368718.5531282.3545301.3545302.5535266.8354906.5531282 1.3368718v9.11h6v-15.39l-11-8.36-11.04 8.39.04 15.36z"/></g></g></svg>