<svg height="512" viewBox="0 0 38 58" width="512" xmlns="http://www.w3.org/2000/svg"><g id="Page-1" fill="none" fill-rule="evenodd"><g id="049---Services-Location" fill="rgb(0,0,0)" fill-rule="nonzero"><path id="Shape" d="m19 52.11c.0418016.0004316.0829131.0107095.12.03l10.75 5.79c.0790266.0420489.1745844.0382265.25-.01l7.46-4.66c.0791194-.0495242.123664-.1393345.1152133-.2322921s-.0684603-.173263-.1552133-.2077079l-11.02-4.33c-.0911411-.0378464-.1521259-.1250408-.1564126-.2236342-.0042866-.0985935.0489002-.1907518.1364126-.2363658l6.99-3.76c.0873054-.0460413.138439-.1399926.1297-.2383067-.0087391-.0983141-.0756425-.1817732-.1697-.2116933l-5.36-1.79c-.0549045-.0199857-.1150955-.0199857-.17 0l-3.94 1.55-3.05 5.09c-.4077958.6765393-1.1400615 1.090159-1.93 1.090159s-1.5222042-.4136197-1.93-1.090159l-3.05-5.09-3.94-1.55c-.0549045-.0199857-.11509552-.0199857-.17 0l-5.36 1.79c-.09405752.0299201-.16096095.1133792-.16969998.2116933s.04239459.1922654.12969998.2383067l6.99 3.76c.0875124.045614.1406992.1377723.1364126.2363658-.0042867.0985934-.0652715.1857878-.1564126.2236342l-11.02 4.33c-.08675296.0344449-.14676257.1147503-.15521326.2077079s.03609385.1827679.11521326.2322921l7.46 4.66c.07541559.0482265.1709734.0520489.25.01l10.75-5.79c.0370869-.0192905.0781984-.0295684.12-.03z"/><path id="Shape" d="m1 3v32c-.00106343.795975.31466559 1.5596548.87750541 2.1224946s1.32651959.8785688 2.12249459.8775054h9l5.79 9.64c.0438376.074332.1237041.1199515.21.1199515s.1661624-.0456195.21-.1199515l5.79-9.64h9c.795975.0010634 1.5596548-.3146656 2.1224946-.8775054s.8785688-1.3265196.8775054-2.1224946v-32c.0010634-.795975-.3146656-1.55965477-.8775054-2.12249459s-1.3265196-.87856884-2.1224946-.87750541h-30c-.795975-.00106343-1.55965477.31466559-2.12249459.87750541s-.87856884 1.32651959-.87750541 2.12249459zm29 3c1.1032246.0032402 1.9967598.89677542 2 2v22c-.004833 1.6548482-1.3451518 2.995167-3 3h-1c-1.6548482-.004833-2.995167-1.3451518-3-3v-6.09c-2.61-.51-3-3.12-3-5.91 0-5.5 4.34-12 8-12zm-24 3.11c-.02306183-1.58542025 1.16375073-2.92816439 2.74-3.1.82649234-.07407768 1.6462065.20157842 2.26.76 1.1395392-1.03048574 2.8756145-1.02615637 4.01.01.8767002-.79163341 2.1374997-.99242173 3.216736-.51228051 1.0792364.48014121 1.7742671 1.55105842 1.773264 2.73228051v10.5c-.0004967 1.3805061-1.1194939 2.4995033-2.5 2.5-.1330094-.001323-.2609565.0509304-.3550131.1449869-.0940565.0940566-.1463099.2220037-.1449869.3550131v7.5c-.004833 1.6548482-1.3451518 2.995167-3 3h-2c-1.6548482-.004833-2.99516701-1.3451518-3-3v-7.5c.00132304-.1330094-.05093042-.2609565-.14498694-.3550131-.09405652-.0940565-.22200363-.1463099-.35501306-.1449869-1.38050608-.0004967-2.49950329-1.1194939-2.5-2.5z"/><path id="Shape" d="m8.5 20c1.38050608.0004967 2.4995033 1.1194939 2.5 2.5v7.5c.0015928.5516236.4483764.9984072 1 1h2c.5516236-.0015928.9984072-.4483764 1-1v-7.5c.0004967-1.3805061 1.1194939-2.4995033 2.5-2.5.1330094.001323.2609565-.0509304.3550131-.1449869.0940565-.0940566.1463099-.2220037.1449869-.3550131v-10.5c.0044344-.26050295-.1007969-.51088094-.29-.69-.2069855-.21762637-.5004183-.33133155-.8-.31-.5217887.0831603-.9068006.53163568-.91 1.06v6.94c0 .5522847-.4477153 1-1 1s-1-.4477153-1-1v-7c.0044344-.26050295-.1007969-.51088094-.29-.69-.1817537-.19968237-.4399972-.31243656-.71-.31-.5516236.00159279-.9984072.44837635-1 1v7c0 .5522847-.4477153 1-1 1s-1-.4477153-1-1v-7c.0044344-.26050295-.1007969-.51088094-.29-.69-.20698555-.21762637-.50041826-.33133155-.8-.31-.53816685.0904864-.9268036.56453782-.91 1.11v10.39c-.00132304.1330094.05093042.2609565.14498694.3550131.09405652.0940565.22200363.1463099.35501306.1449869z"/><path id="Shape" d="m26 22c.5516236.0015928.9984072.4483764 1 1v7c.0015928.5516236.4483764.9984072 1 1h1c.5516236-.0015928.9984072-.4483764 1-1v-22c-2.31 0-6 5.46-6 10 0 4 1.02 4 2 4z"/></g></g></svg>