<svg height="512" viewBox="0 0 38 58" width="512" xmlns="http://www.w3.org/2000/svg"><g id="Page-1" fill="none" fill-rule="evenodd"><g id="050---Parking-Location" fill="rgb(0,0,0)" fill-rule="nonzero"><path id="Shape" d="m37.54 52.82-11.02-4.33c-.0911411-.0378464-.1521259-.1250408-.1564126-.2236342-.0042866-.0985935.0489002-.1907518.1364126-.2363658l6.99-3.76c.0873054-.0460413.138439-.1399926.1297-.2383067-.0087391-.0983141-.0756425-.1817732-.1697-.2116933l-5.36-1.79c-.0549045-.0199857-.1150955-.0199857-.17 0l-3.94 1.55-3.05 5.09c-.4077958.6765393-1.1400615 1.090159-1.93 1.090159s-1.5222042-.4136197-1.93-1.090159l-3.05-5.09-3.94-1.55c-.0549045-.0199857-.11509552-.0199857-.17 0l-5.36 1.79c-.09405752.0299201-.16096095.1133792-.16969998.2116933s.04239459.1922654.12969998.2383067l6.99 3.76c.0875124.045614.1406992.1377723.1364126.2363658-.0042867.0985934-.0652715.1857878-.1564126.2236342l-11.02 4.33c-.08675296.0344449-.14676257.1147503-.15521326.2077079s.03609385.1827679.11521326.2322921l7.46 4.66c.07541559.0482265.1709734.0520489.25.01l10.75-5.79c.075-.04.165-.04.24 0l10.75 5.79c.0790266.0420489.1745844.0382265.25-.01l7.46-4.66c.0791194-.0495242.123664-.1393345.1152133-.2322921s-.0684603-.173263-.1552133-.2077079z"/><path id="Shape" d="m15 20c.0015928-.5516236.4483764-.9984072 1-1h6c2.7610122-.0009934 4.9990066-2.2389878 5-5v-1c-.0009934-2.7610122-2.2389878-4.99900657-5-5h-9v22h2zm0-9c.0015928-.5516236.4483764-.9984072 1-1h6c1.6548482.004833 2.995167 1.3451518 3 3v1c-.004833 1.6548482-1.3451518 2.995167-3 3h-6c-.5516236-.0015928-.9984072-.4483764-1-1z"/><path id="Shape" d="m23 14v-1c-.0015928-.5516236-.4483764-.9984072-1-1h-5v3h5c.5516236-.0015928.9984072-.4483764 1-1z"/><path id="Shape" d="m13 38 5.79 9.64c.0438376.074332.1237041.1199515.21.1199515s.1661624-.0456195.21-.1199515l5.79-9.64h9c.795975.0010634 1.5596548-.3146656 2.1224946-.8775054s.8785688-1.3265196.8775054-2.1224946v-32c.0010634-.795975-.3146656-1.55965477-.8775054-2.12249459s-1.3265196-.87856884-2.1224946-.87750541h-30c-.795975-.00106343-1.55965477.31466559-2.12249459.87750541s-.87856884 1.32651959-.87750541 2.12249459v32c-.00106343.795975.31466559 1.5596548.87750541 2.1224946s1.32651959.8785688 2.12249459.8775054zm-2-31c.0015928-.55162365.4483764-.99840721 1-1h10c3.8642341.00424366 6.9957563 3.1357659 7 7v1c-.0042437 3.8642341-3.1357659 6.9957563-7 7h-5v10c-.0015928.5516236-.4483764.9984072-1 1h-4c-.5516236-.0015928-.9984072-.4483764-1-1z"/></g></g></svg>