<svg height="512" viewBox="0 0 60 59" width="512" xmlns="http://www.w3.org/2000/svg"><g id="Page-1" fill="none" fill-rule="evenodd"><g id="051---Satellite" fill="rgb(0,0,0)" fill-rule="nonzero"><path id="Shape" d="m30.98 26.8926c-.6524-.0215-1.3184-.0215-1.9483 0-16.1885273.5416434-29.03180685 13.8219139-29.0317 30.0195 0 .37.01.75.022 1.12.00372273.2667485.11583357.5204974.31053898.7028664.19470542.1823689.45523962.2776543.72166102.2639336.26497991-.0084562.51573699-.1218724.6970649-.3152788s.27836046-.4509467.2697351-.7159212c-.011-.3486-.021-.707-.021-1.0556.00142632-15.118052 11.9876961-27.5131798 27.0972-28.0215.5879-.02 1.208-.02 1.8174 0 15.1048671.5145317 27.0841894 12.907872 27.0854 28.0215 0 .3486-.01.707-.021 1.0557-.0086254.2649745.0884072.5225148.2697351.7159212s.432085.3068226.6970649.3152788c.0112.001.0225.001.0332.001.5395624-.0002598.9816262-.4285173.999-.9678.0122-.37.022-.75.022-1.12-.0004608-16.1929001-12.8363966-29.4709723-29.02-30.0196z"/><path id="Shape" d="m22.88 34.08c-4.784965 1.4930088-8.9816568 4.4481792-12 8.45 1.9623086.6204198 3.9677648 1.0950445 6 1.42.0424442.0115299.0860529.0182389.13.02 1.1043811-3.733252 3.1218551-7.1323691 5.87-9.89z"/><path id="Shape" d="m19.01 44.28c3.3113498.4504499 6.6482279.6876054 9.99.71v-11.91c-4.07.58-7.78 4.72-9.99 11.2z"/><path id="Shape" d="m29 33.02v.06c.19-.03.37-.05.55-.07-.11-.01-.22 0-.33 0-.07 0-.15.01-.22.01z"/><path id="Shape" d="m30.78 33.01c-.1 0-.2-.01-.3 0 .17.02.34.04.52.07v-.06c-.07 0-.15-.01-.22-.01z"/><path id="Shape" d="m40.99 44.28v-.01c-2.22-6.47-5.92-10.61-9.99-11.19v11.91c3.3418004-.0216659 6.6787253-.2588247 9.99-.71z"/><path id="Shape" d="m37.12 34.08c2.7537057 2.7572447 4.7719371 6.1610762 5.87 9.9.04-.01.08-.01.12-.02 2.0350762-.3317129 4.0436091-.8096167 6.01-1.43-3.0183432-4.0018208-7.215035-6.9569912-12-8.45z"/><path id="Shape" d="m9.99 44.35c-.09625013-.0289327-.18735988-.0728004-.27-.13-2.43870394 3.8415422-3.72933349 8.2997652-3.72 12.85 0 .31.01.62.02.93h8.99c-.01-.32-.01-.65-.01-.96-.0131939-3.7599308.4675857-7.5053044 1.43-11.14-2.1841269-.3463096-4.3374894-.8645879-6.44-1.55z"/><path id="Shape" d="m17 57.04c0 .3 0 .62.01.93v.03h11.99v-11.01c-3.5398974-.0203006-7.0744657-.2775423-10.58-.77-.9562707 3.5266957-1.433885 7.1659826-1.42 10.82z"/><path id="Shape" d="m31 46.99v11.01h11.99v-.03c.01-.31.01-.63.01-.93.0132058-3.6572642-.4643889-7.2997644-1.42-10.83-3.5046332.5020703-7.0396288.7626844-10.58.78z"/><path id="Shape" d="m50.04 44.34c-2.1157592.6794723-4.2781282 1.2041893-6.47 1.57.9624199 3.6312898 1.443207 7.3733601 1.43 11.13 0 .31 0 .64-.01.96h8.99c.01-.31.02-.62.02-.93.0093335-4.5502348-1.2812961-9.0084578-3.72-12.85-.0735457.0517823-.1544468.0922328-.24.12z"/><path id="Shape" d="m35 9.2v-7.2c-.0032402-1.10322458-.8967754-1.9967598-2-2h-6c-1.1032246.0032402-1.9967598.89677542-2 2v7.2c3.1413346-1.59999457 6.8586654-1.59999457 10 0z"/><path id="Shape" d="m31 17h5.8994c.2935119.0030411.5733935-.1236574.7647837-.3462068.1913902-.2225495.2747623-.5182441.2278163-.8079932-.6281-3.3195-3.9211-5.8458-7.892-5.8458s-7.2639 2.5263-7.892 5.8458c-.046946.2897491.0364261.5854437.2278163.8079932.1913902.2225494.4712718.3492479.7647837.3462068h5.8994v3c.0055026.0851824.0223168.1692537.05.25-.8061685.4348591-1.2138885 1.3617937-.9896342 2.2498929s1.0231592 1.5103485 1.9391342 1.5103485 1.7148799-.6222493 1.9391342-1.5103485-.1834657-1.8150338-.9896342-2.2498929c.0280236-.0806996.0451744-.164772.051-.25z"/><path id="Shape" d="m13 .15-12 1.85v9l12-1.85z"/><path id="Shape" d="m23 10.55v-8.55c0-.12.01-.24.02-.36l-8.02-1.46v9l7.92 1.44c.03-.02.05-.05.08-.07z"/><path id="Shape" d="m59 2-12-1.85v9l12 1.85z"/><path id="Shape" d="m45 .18-8.02 1.46c.01.12.02.24.02.36v8.55c.03.02.05.05.08.07l7.92-1.44z"/></g></g></svg>