<svg height="512" viewBox="0 0 58 58" width="512" xmlns="http://www.w3.org/2000/svg"><g id="Page-1" fill="none" fill-rule="evenodd"><g id="052---Toll-Road" fill="rgb(0,0,0)" fill-rule="nonzero"><path id="Shape" d="m22 41c-.0105632-6.9950724 3.8339162-13.4268863 10-16.73v-22.27c-.0032402-1.10322458-.8967754-1.9967598-2-2h-11v12c0 1.6568542-1.3431458 3-3 3s-3-1.3431458-3-3v-12h-11c-1.10322458.0032402-1.9967598.89677542-2 2v54c.0032402 1.1032246.89677542 1.9967598 2 2h11v-12c0-1.6568542 1.3431458-3 3-3s3 1.3431458 3 3v12h11c.5347853-.0007806 1.0466839-.2170758 1.42-.6-5.831108-3.4044099-9.4172667-9.6478285-9.42-16.4zm-17-11c0 .5522847-.44771525 1-1 1s-1-.4477153-1-1v-21c0-.55228475.44771525-1 1-1s1 .44771525 1 1zm0-25c0 .55228475-.44771525 1-1 1s-1-.44771525-1-1v-1c0-.55228475.44771525-1 1-1s1 .44771525 1 1zm14 29c0 .1-.01.2-.02.3-.0298782.2777759-.0971535.5502409-.2.81-.5309226 1.3366357-1.9367866 2.1073734-3.3491966 1.8361321-1.41241-.2712414-2.4327679-1.5079144-2.4308034-2.9461321v-10c0-1.6568542 1.3431458-3 3-3s3 1.3431458 3 3z"/><path id="Shape" d="m42 49.87c1.7658587-.454446 3.0001506-2.0466026 3.0001506-3.87s-1.2342919-3.415554-3.0001506-3.87z"/><path id="Shape" d="m41 24c-9.3888407 0-17 7.6111593-17 17s7.6111593 17 17 17 17-7.6111593 17-17c.0003979-4.5088023-1.7905406-8.83305-4.9787453-12.0212547s-7.5124524-4.9791432-12.0212547-4.9787453zm-10.14 23.41c.1934278.3084859.2037373.6977688.0269087 1.0160604-.1768287.3182915-.5127984.5151971-.8769087.5139396-.3459636.0024992-.66817-.175662-.85-.47-1.4108634-2.2361109-2.1597475-4.8260016-2.16-7.47-.0071807-2.6740517.7604214-5.2929295 2.21-7.54.1926826-.3006543.5312447-.4755364.8879447-.4586621.3567.0168742.6772409.2229363.8406806.5404375.1634398.3175013.1448996.6981117-.0486253.9982246-2.5091492 3.9199539-2.5208472 8.9383911-.03 12.87zm16.14-1.41c.0011619 2.9270328-2.1132211 5.4262335-5 5.91v1.09c0 .5522847-.4477153 1-1 1s-1-.4477153-1-1v-1.09c-2.8867789-.4837665-5.0011619-2.9829672-5-5.91 0-.5522847.4477153-1 1-1s1 .4477153 1 1c-.0016122 1.8238992 1.2332756 3.4169044 3 3.87v-7.96c-2.8861891-.4848161-5.0000504-2.983375-5.0000504-5.91s2.1138613-5.4251839 5.0000504-5.91v-1.09c0-.5522847.4477153-1 1-1s1 .4477153 1 1v1.09c2.8867789.4837665 5.0011619 2.9829672 5 5.91 0 .5522847-.4477153 1-1 1s-1-.4477153-1-1c.0016122-1.8238992-1.2332756-3.4169044-3-3.87v7.96c2.8867789.4837665 5.0011619 2.9829672 5 5.91zm5.84 2.47c-.18183.294338-.5040364.4724992-.85.47-.3641103.0012575-.70008-.1956481-.8769087-.5139396-.1768286-.3182916-.1665191-.7075745.0269087-1.0160604 2.4908472-3.9316089 2.4791492-8.9500461-.03-12.87-.1935249-.3001129-.2120651-.6807233-.0486253-.9982246.1634397-.3175012.4839806-.5235633.8406806-.5404375.3567-.0168743.6952621.1580078.8879447.4586621 1.4495786 2.2470705 2.2171807 4.8659483 2.21 7.54-.0002525 2.6439984-.7491366 5.2338891-2.16 7.47z"/><path id="Shape" d="m37 36c-.0016122 1.8238992 1.2332756 3.4169044 3 3.87v-7.74c-1.7667244.4530956-3.0016122 2.0461008-3 3.87z"/></g></g></svg>