<svg height="512" viewBox="0 0 58 58" width="512" xmlns="http://www.w3.org/2000/svg"><g id="Page-1" fill="none" fill-rule="evenodd"><g id="053---Traffic-Lights" fill="rgb(0,0,0)" fill-rule="nonzero"><path id="Shape" d="m29 41c-.16 0-.3.01-.45.02-.03 0-.07.01-.1.01h-.11c-2.5866863.1074325-4.9025436 1.6346672-6.02 3.97h.02c1.4681573-.0288798 2.8975352-.4764278 4.12-1.29 1.5610249-.9466622 3.5189751-.9466622 5.08 0 1.2224648.8135722 2.6518427 1.2611202 4.12 1.29h.02c-1.2384691-2.5381645-3.8578176-4.1066367-6.68-4z"/><path id="Shape" d="m30.15 9.37c-.2528934-.17815824-.5440026-.29460191-.85-.34-.2022268-.02999959-.4077732-.02999959-.61 0-.0172822-.0015564-.0346458.00191633-.05.01-.288298.04771095-.5619089.16057541-.8.33-1.3196511 1.0211214-2.9318411 1.5923975-4.6 1.63h-.24c0 3.3137085 2.6862915 6 6 6s6-2.6862915 6-6h-.24c-1.6709472-.0390397-3.2858831-.6100474-4.61-1.63z"/><path id="Shape" d="m27.51 27.41c-1.3526459.882001-2.9014794 1.4177394-4.51 1.56v.03c0 3.3137085 2.6862915 6 6 6s6-2.6862915 6-6v-.03c-1.6113204-.143704-3.1630554-.6792586-4.52-1.56-.9177227-.5349935-2.0522773-.5349935-2.97 0z"/><path id="Shape" d="m38 0h-18c-.795975-.00106343-1.5596548.31466559-2.1224946.87750541s-.8785688 1.32651959-.8775054 2.12249459v52c-.0010634.795975.3146656 1.5596548.8775054 2.1224946s1.3265196.8785688 2.1224946.8775054h18c.795975.0010634 1.5596548-.3146656 2.1224946-.8775054s.8785688-1.3265196.8775054-2.1224946v-52c.0010634-.795975-.3146656-1.55965477-.8775054-2.12249459s-1.3265196-.87856884-2.1224946-.87750541zm-.24 46.65c-.1909039.2209427-.4680104.3485576-.76.35 0 4.418278-3.581722 8-8 8s-8-3.581722-8-8c-.2919896-.0014424-.5690961-.1290573-.76-.35-.1875397-.2254435-.2710772-.5196406-.23-.81.61-3.67 4.07-6.49 8.22-6.8h.02c.0962263-.0119842.1930395-.0186609.29-.02.1527369-.0166419.3063951-.0233227.46-.02 4.49 0 8.35 2.94 8.99 6.84.0410772.2903594-.0424603.5845565-.23.81zm0-18c-.1909039.2209427-.4680104.3485576-.76.35 0 4.418278-3.581722 8-8 8s-8-3.581722-8-8c-.2919896-.0014424-.5690961-.1290573-.76-.35-.1875397-.2254435-.2710772-.5196406-.23-.81.64-3.9 4.5-6.84 8.99-6.84.2505802-.0019035.5010438.0114545.75.04h.02c4.15.31 7.61 3.13 8.22 6.8.0410772.2903594-.0424603.5845565-.23.81zm0-18c-.1909039.2209427-.4680104.3485576-.76.35 0 4.418278-3.581722 8-8 8s-8-3.581722-8-8c-.2919896-.0014424-.5690961-.1290573-.76-.35-.1875397-.2254435-.2710772-.5196406-.23-.81.64-3.9 4.5-6.84 8.99-6.84s8.35 2.94 8.99 6.84c.0410772.2903594-.0424603.5845565-.23.81z"/><path id="Shape" d="m29.66 23.03h-.11c-.0596196-.0083121-.1198266-.0116569-.18-.01-.0360478-.0082797-.0730501-.0116435-.11-.01-.0325795-.0100256-.0674205-.0100256-.1 0-.0528702-.008627-.1064671-.0119768-.16-.01-2.8221824-.1066367-5.4415309 1.4618355-6.68 4h.02c1.4681573-.0288798 2.8975352-.4764278 4.12-1.29 1.5610249-.9466622 3.5189751-.9466622 5.08 0 1.2224648.8135722 2.6518427 1.2611202 4.12 1.29h.02c-1.1174564-2.3353328-3.4333137-3.8625675-6.02-3.97z"/><path id="Shape" d="m29 5c-2.8221824-.10663668-5.4415309 1.46183551-6.68 4h.92c1.2474323-.03995208 2.4493592-.47797206 3.43-1.25 1.3950972-.97999879 3.2549028-.97999879 4.65 0 .9851196.77087781 2.1897995 1.20862485 3.44 1.25h.92c-1.2384691-2.53816449-3.8578176-4.10663668-6.68-4z"/><path id="Shape" d="m27.51 45.41c-1.3526459.882001-2.9014794 1.4177394-4.51 1.56v.03c0 3.3137085 2.6862915 6 6 6s6-2.6862915 6-6v-.03c-1.6113204-.143704-3.1630554-.6792586-4.52-1.56-.9177227-.5349935-2.0522773-.5349935-2.97 0z"/><path id="Shape" d="m0 5v.41c.00136189 1.43753813 1.01933321 2.67334693 2.43 2.95 3.28.63 8.89 2.33 10.26 6.6.3360316 1.0439447 1.2278161 1.812192 2.31 1.99v-12.95h-14c-.55162365.00159279-.99840721.44837635-1 1z"/><path id="Shape" d="m0 23v.41c.00136189 1.4375381 1.01933321 2.6733469 2.43 2.95 3.28.63 8.89 2.33 10.26 6.6.3360316 1.0439447 1.2278161 1.812192 2.31 1.99v-12.95h-14c-.55162365.0015928-.99840721.4483764-1 1z"/><path id="Shape" d="m0 41v.41c.00136189 1.4375381 1.01933321 2.6733469 2.43 2.95 3.28.63 8.89 2.33 10.26 6.6.3360316 1.0439447 1.2278161 1.812192 2.31 1.99v-12.95h-14c-.55162365.0015928-.99840721.4483764-1 1z"/><path id="Shape" d="m57 4h-14v12.95c1.0821839-.177808 1.9739684-.9460553 2.31-1.99 1.37-4.27 6.98-5.97 10.26-6.6 1.4106668-.27665307 2.4286381-1.51246187 2.43-2.95v-.41c-.0015928-.55162365-.4483764-.99840721-1-1z"/><path id="Shape" d="m57 22h-14v12.95c1.0821839-.177808 1.9739684-.9460553 2.31-1.99 1.37-4.27 6.98-5.97 10.26-6.6 1.4106668-.2766531 2.4286381-1.5124619 2.43-2.95v-.41c-.0015928-.5516236-.4483764-.9984072-1-1z"/><path id="Shape" d="m57 40h-14v12.95c1.0821839-.177808 1.9739684-.9460553 2.31-1.99 1.37-4.27 6.98-5.97 10.26-6.6 1.4106668-.2766531 2.4286381-1.5124619 2.43-2.95v-.41c-.0015928-.5516236-.4483764-.9984072-1-1z"/></g></g></svg>