<svg height="512" viewBox="0 0 44 59" width="512" xmlns="http://www.w3.org/2000/svg"><g id="Page-1" fill="none" fill-rule="evenodd"><g id="054---Radio-Mast" fill="rgb(0,0,0)" fill-rule="nonzero" transform="translate(0 -1)"><path id="Shape" d="m42 50h-5.3607l-11.9415-25.8486c-.0273811-.0448431-.0584555-.0873237-.0929-.127 1.2699291-1.0898423 1.7271962-2.8550315 1.1461206-4.4243713s-2.0776583-2.6110817-3.7511206-2.6110817-3.170045 1.0417419-3.7511206 2.6110817-.1238085 3.334529 1.1461206 4.4243713c-.0345422.0397168-.0656851.0822666-.0931.1272l-11.9418 25.8484h-5.36c-1.10322458.0032402-1.9967598.8967754-2 2v6c.0032402 1.1032246.89677542 1.9967598 2 2h40c1.1032246-.0032402 1.9967598-.8967754 2-2v-6c-.0032402-1.1032246-.8967754-1.9967598-2-2zm-36 5h-2c-.55228475 0-1-.4477153-1-1s.44771525-1 1-1h2c.55228475 0 1 .4477153 1 1s-.44771525 1-1 1zm27.6852-6.6267-5.8527-5.5546 2.2848-2.1687zm-8.7581-5.5549-2.9271 2.7783-2.9271-2.7783 2.9271-2.7784zm-5.6908-8.1577 2.7637-2.5033 2.7637 2.5033-2.7637 2.6228zm1.3109 12.3149-3.1863 3.0244h-5.8544l6.1135-5.8026zm1.4528 1.3789 1.7337 1.6455h-3.4674zm1.4528-1.3789 2.9272-2.7782 6.1135 5.8026h-5.8544zm5.7787-8.2428-2.8515 2.7072-2.9272-2.778 2.7972-2.6553 2.962 2.6829zm-4.2749-9.2535 1.6053 3.4748-.3433.3258-2.7286-2.4719zm-3.8384-4.49c.0131-.0287.0106-.0592.0209-.0885.5664141.1322678 1.1556859.1322678 1.7221 0 .01.0292.0078.06.0211.0885l1.1954 2.5874-2.0777 1.882-2.0773-1.8817zm-2.0745 4.49 1.4663 1.3287-2.7286 2.472-.343-.3255zm-4.2545 9.2093 2.9608-2.6819 2.7973 2.6551-2.9268 2.7782-2.8517-2.7067zm-.9062 1.9614 2.2845 2.1683-5.8519 5.5538zm26.117 14.35h-30c-.55228475 0-1-.4477153-1-1s.44771525-1 1-1h30c.5522847 0 1 .4477153 1 1s-.4477153 1-1 1z"/><path id="Shape" d="m33.7007 36.96c.2234884.0002943.4405603-.0747051.6162-.2129 6.7246142-5.2563672 9.3724459-14.2010348 6.5927131-22.270912-2.7797329-8.06987722-10.3744017-13.48643468-18.9096131-13.48643468s-16.12988024 5.41655746-18.90961308 13.48643468c-2.77973284 8.0698772-.13190114 17.0145448 6.59271308 22.270912.28077349.2256805.6612289.2829075.9959686.1498105s.5720242-.4359455.6211713-.7928069c.0491471-.3568613-.0974398-.7125768-.3837399-.9312036-6.05303737-4.7302463-8.4369567-12.7807139-5.93550515-20.0441313 2.50145154-7.26341732 9.33691615-12.13881719 17.01900515-12.13881719s14.5175536 4.87539987 17.0190052 12.13881719c2.5014515 7.2634174.1175322 15.313885-5.9355052 20.0441313-.3357774.2631381-.4676524.7103138-.3283913 1.1135439.1392611.40323.5189906.6737159.9455913.6735561z"/><path id="Shape" d="m31.47 32.31c.2516738.0003443.4941511-.0945816.6787-.2657 4.5525442-4.1830546 6.0722178-10.7308046 3.827514-16.4914391-2.2447037-5.76063438-7.7938899-9.55391417-13.976414-9.55391417s-11.7317103 3.79327979-13.97641404 9.55391417c-2.24470377 5.7606345-.72503012 12.3083845 3.82751404 16.4914391.2616797.2466567.6356458.3338169.9794131.2282717s.6043933-.3875411.6825764-.7385442-.0381173-.7169563-.3045895-.9584275c-3.94790272-3.6242838-5.26712083-9.2998338-3.32243039-14.2937849 1.94469039-4.9939511 6.75469829-8.28272426 12.11393039-8.28272426s10.16924 3.28877316 12.1139304 8.28272426.6254723 10.6695011-3.3224304 14.2937849c-.3023069.2793856-.4025267.7154762-.2525219 1.0988095.1500048.3833332.5195839.6355835.9312219.6355905z"/><path id="Shape" d="m28.53 27.2617c.4374044.3370039 1.0651701.2557073 1.4023-.1816 1.3469155-1.7399808 2.0745912-3.8797212 2.0677-6.0801 0-5.5228475-4.4771525-10-10-10s-10 4.4771525-10 10c-.0069548 2.2003093.720613 4.3400074 2.0674 6.08.337087.4376581.9651419.519187 1.4028.1821s.519187-.9651419.1821-1.4028c-1.0765666-1.3905519-1.658073-3.1007219-1.6523-4.8593.0000001-4.4182779 3.5817221-7.9999998 8-7.9999998s7.9999999 3.5817219 8 7.9999998c.0057953 1.7586123-.5757123 3.4688211-1.6523 4.8594-.3368473.4375877-.2552336 1.0653824.1823 1.4023z"/></g></g></svg>