<svg height="512" viewBox="0 0 58 58" width="512" xmlns="http://www.w3.org/2000/svg"><g id="Page-1" fill="none" fill-rule="evenodd"><g id="055---World-Location" fill="rgb(0,0,0)" fill-rule="nonzero"><path id="Shape" d="m14.07 43.91c-5.9-1.76-10.43-4.43-13.15-7.63 2.65190721 10.1938234 10.6149032 18.1529928 20.81 20.8-3.22-2.71-5.9-7.25-7.66-13.17z"/><path id="Shape" d="m13.46 41.61c-.9111762-3.8042411-1.3941762-7.6984283-1.44-11.61h-11.95c.62 4.7 5.64 9.05 13.39 11.61z"/><path id="Shape" d="m12.02 28c.0481559-3.9108191.5277249-7.8043824 1.43-11.61-7.74 2.57-12.76 6.92-13.38 11.61z"/><path id="Shape" d="m21.7.93c-10.181204 2.65428199-18.13061666 10.6075201-20.78 20.79 2.72-3.2 7.25-5.87 13.15-7.63 1.75-5.91 4.43-10.44 7.63-13.16z"/><path id="Shape" d="m28.18 43.84-4.28-6.4.01-.01c-1.6070229-2.5857141-2.5769708-5.5161219-2.83-8.55-.0686188-.6676717-.0953378-1.3389868-.08-2.01.0820088-4.7906015 1.926115-9.3830666 5.18-12.9 1.2435388-1.3430479 2.6670565-2.5074382 4.23-3.46 6.8003692-4.15548367 15.4524672-3.71890991 21.8 1.1-3.9465667-5.26865454-9.5676896-9.03840389-15.94-10.69 1.1787483 1.02021273 2.2267122 2.18237782 3.12 3.46.207214.28938513.2443026.66733539.0972947.99148058-.1470078.32414519-.4557781.54523994-.81.58s-.7000807-.12209545-.9072947-.41148058c-2.32-3.24-4.98-5.11-7.77-5.47v8.97c.0020016.19966883-.0573378.39513983-.17.56-.1889301.27260097-.4983458.4366286-.83.44-.5516236-.0015928-.9984072-.44837635-1-1v-8.96c-4.72.62-9.07 5.65-11.63 13.39 2.5072534-.612999 5.0582129-1.030915 7.63-1.25.2653849-.0246722.5296525.057501.734252.2283135.2045996.1708124.3326383.416161.355748.6816865.0417281.5497606-.3616232 1.0328957-.91 1.09-2.866061.2380283-5.7044661.7367575-8.48 1.49-1.0677283 4.0110993-1.632066 8.1394984-1.68 12.29h5.06c.5433766.0027977.9862267.4367908 1 .98v.02c-.0015928.5516236-.4483764.9984072-1 1h-5.06c.047934 4.1505016.6122717 8.2789007 1.68 12.29 3.5441973.9510886 7.1832939 1.5044996 10.85 1.65.3245604.0176738.6214542.1883878.8.46.1128987.1717427.1688769.374664.16.58-.0256799.5347042-.4646933.9561571-1 .96h-.04c-3.4075881-.1428321-6.7933626-.6150321-10.11-1.41 2.57 7.75 6.93 12.78 11.64 13.4v-8.59c.0015928-.5516236.4483764-.9984072 1-1 .3316542.0033714.6410699.167399.83.44.1126622.1648602.1720016.3603312.17.56v8.63c2.3389126-.0674301 4.6602316-.4268819 6.91-1.07l-5.94-8.88z"/><path id="Shape" d="m.03 30h.04c-.02-.16-.04-.33-.05-.5-.00676783.1667157-.00342838.3336883.01.5z"/><path id="Shape" d="m40.51 9.67c-9.5401941.0523264-17.3039049 7.6918888-17.51 17.23-.0118276.6041807.0115453 1.2085374.07 1.81.276493 3.2359224 1.4543705 6.3295831 3.4 8.93l-.02.02 3.39 5.07 9.05 13.54.92 1.37c.1573142.2255928.414973.3600374.69.3600374s.5326858-.1344446.69-.3600374l2.38-3.56 10.98-16.42-.02-.02c2.0687346-2.7685208 3.2694133-6.0886584 3.45-9.54.01-.31.02-.62.02-.93.0064823-4.6415396-1.8338074-9.0949839-5.1149366-12.3779891s-7.7335208-5.12584009-12.3750634-5.1220109zm-9.51 28.33c-.5522847 0-1-.4477153-1-1s.4477153-1 1-1 1 .4477153 1 1c-.0015928.5516236-.4483764.9984072-1 1zm9.52 13.85c-.1558172.097819-.336023.1498015-.52.15-.3474504-.0015853-.6692108-.1832853-.85-.48l-6.67-10.83c-.1391425-.2251161-.1825548-.4965016-.1205804-.7537894.0619745-.2572879.2241961-.4791411.4505804-.6162106.4695594-.2920039 1.0868725-.1488589 1.38.32l6.66 10.84c.1385718.2252641.1816583.4964642.1197245.7535833s-.223781.4789556-.4497245.6164167zm-.02-14.85c-5.2467051 0-9.5-4.2532949-9.5-9.5s4.2532949-9.5 9.5-9.5 9.5 4.2532949 9.5 9.5c-.0047414 5.2447399-4.2552601 9.4952586-9.5 9.5z"/><circle id="Oval" cx="40.5" cy="27.5" r="7.5"/></g></g></svg>