<svg height="512" viewBox="0 0 49 59" width="512" xmlns="http://www.w3.org/2000/svg"><g id="Page-1" fill="none" fill-rule="evenodd"><g id="056---Ground-Satellite" fill="rgb(0,0,0)" fill-rule="nonzero"><rect id="Rectangle-path" height="7" rx="2" width="42" y="52"/><path id="Shape" d="m22.3 26.76c-.72-.72-1.43-1.45-2.12-2.17-5.58-5.77-13.7-14.89-15.35-20.62-3.54 6.77-2.66 19.63 8.99 31.28 11.58 11.58 24.37 12.51 31.17 9.04-6.48-2.07-18.06-13.03-20.52-15.4-.72-.69-1.44-1.4-2.17-2.13z"/><path id="Shape" d="m27.86 16.45-6.5 6.47c.08.09.17.19.26.28.68.72 1.38 1.44 2.09 2.15.72.72 1.43 1.42 2.14 2.1.08.07.15.14.23.21l6.52-6.49.52-.52.76-.75c-1.1847266-.2228476-2.2732174-.8019805-3.12-1.66-.8365612-.8293417-1.4104225-1.8866376-1.65-3.04z"/><path id="Shape" d="m6.75 1.31c-1.73 1.73 4.01 10.36 13.22 20.17l6.48-6.45.49-.49c-9.82-9.21-18.46-14.96-20.19-13.23z"/><path id="Shape" d="m27.53 29.04c9.84 9.23 18.49 15.02 20.23 13.28s-4.04-10.39-13.26-20.22z"/><path id="Shape" d="m35 0c-1.8385282-.00216369-3.6596088.35651446-5.36 1.0557-.5108634.2098682-.7548682.79413661-.545 1.305s.7941366.7548682 1.305.545c1.4593348-.59986643 3.0221869-.90757842 4.6-.9057 6.6255655.00446773 11.9955323 5.37443448 12 12 .0020838 1.5779883-.3054936 3.1410508-.9053 4.6006-.2096872.5107526.0342358 1.0947978.5449 1.3047.1204381.0499798.2496037.0755409.38.0752.4055837.0003601.7710813-.2446751.9248-.62.6992155-1.7005537 1.0578609-3.5218103 1.0556-5.3605-.002925-7.7307746-6.2692254-13.99707501-14-14z"/><path id="Shape" d="m42.9434 18.376c.1195448.0492336.2476141.0744465.3769.0742.4066488.0000617.7727623-.2463471.9258-.6231.4973465-1.2146673.7534116-2.5145567.7539-3.8271-.0068871-5.51999226-4.4800077-9.99311291-10-10-1.3125433.00048844-2.6124327.25655352-3.8271.7539-.3409041.12766485-.5855051.43049566-.6386015.79062717-.0530963.36013151.0937004.72066843.3832552.94128563s.6761224.26646051 1.0092463.1196872c.975486-.39906722 2.0192422-.60471423 3.0732-.6055 4.4154922.00671827 7.9932817 3.58450779 8 8-.0007858 1.0539578-.2064328 2.097714-.6055 3.0732-.1003457.2455172-.0988645.5208742.0041168.7652977.1029813.2444234.2989963.4378188.5447832.5375023z"/><circle id="Oval" cx="35" cy="14" r="4"/><path id="Shape" d="m12.41 36.66c-.25-.25-.49-.49-.73-.74l-3.68 14.08h26l-.43-2.15c-5.28-.66-13.13-3.15-21.16-11.19z"/></g></g></svg>