<svg height="512" viewBox="0 0 40 58" width="512" xmlns="http://www.w3.org/2000/svg"><g id="Page-1" fill="none" fill-rule="evenodd"><g id="057---ATM" fill="rgb(0,0,0)" fill-rule="nonzero"><path id="Shape" d="m39 0h-38c-.55162365.00159279-.99840721.44837635-1 1v12c.00159279.5516236.44837635.9984072 1 1h4.26c.08-.66.15-1.32.22-1.98.14162651-1.4177084 1.17854174-2.58373368 2.57-2.89 7.9055223-1.51002332 16.0257425-1.50663 23.93.01 1.3604274.3140777 2.3745568 1.452468 2.53 2.84.07.68.15 1.35.22 2.02h4.27c.5516236-.0015928.9984072-.4483764 1-1v-12c-.0015928-.55162365-.4483764-.99840721-1-1zm-5 7h-29c-.55228475 0-1-.44771525-1-1s.44771525-1 1-1h29c.5522847 0 1 .44771525 1 1s-.4477153 1-1 1z"/><path id="Shape" d="m34.19 39.41c-.4704298.5331686-1.0044074 1.0066959-1.59 1.41l.78 9.66c.0080274.0562928.0113722.1131543.01.17-.0067808.0599913-.0134997.1199992-.0201668.1800034-.0004429.0418002-.0107201.082909-.03.12l-.03.09-.03.06c-.0195494.0420905-.0429844.0822647-.07.12-.0243887.0409202-.0547196.0779913-.09.11-.070901.0740478-.1516593.1379814-.24.19-.0322947.0186677-.065689.0353649-.1.05h-.01c-.01.01-.02.01-.04.02-1.0687559.3674542-1.9862585 1.077552-2.61 2.02-.02.02-.03.05-.05.07-.0308028.0388898-.0642131.0756412-.1.11l-.02.02c-.0476312.0367566-.0977511.0701699-.15.1-.01.02-.03.02-.05.03-.062127.0368519-.1295964.0638397-.2.08-.0870584.0286417-.178377.0421703-.27.04-.0571396-.001722-.1140209-.0084139-.17-.02-6.0559418-.6499997-12.1640583-.6499997-18.22 0-.02253.007567-.0462525.0109559-.07.01-.0544538.0027342-.1090246.0020997-.1634-.0019l.01.0019h-.0064332c-.0883777-.0060321-.1756894-.0228239-.26-.0500034-.1607452-.0410769-.3043043-.1321144-.41-.26l-.06-.06c-.02-.02-.03-.05-.05-.07-.0201927-.0242937-.03701142-.0512037-.05-.08-.62485183-.9028941-1.52177227-1.5825916-2.56-1.94-.02-.01-.03-.01-.05-.02-.034311-.0146351-.06770532-.0313323-.1-.05-.09053346-.0487533-.17177408-.1130688-.24-.19-.04218634-.045708-.07908596-.0960257-.11-.15-.03836547-.0466348-.06571148-.1013268-.08-.16-.03039243-.0595701-.0506689-.1237789-.06-.19-.00682909-.059981-.01319103-.1200137-.01985761-.1800129-.00137222-.0568457.00197258-.1137073.01-.17l.78-9.66c-.58559265-.4033042-1.11957019-.8768314-1.59-1.41-.46405655-.5297703-.85119158-1.1222552-1.15-1.76-.72 6.52-1.44 13.0466666-2.16 19.58-.06.54.41.87 1.06.74 10.86226051-2.0699997 22.01773951-2.0699997 32.88000001 0 .65.13 1.12-.2 1.06-.74-.72-6.53-1.44-13.06-2.16-19.59-.2926039.6442582-.6803089 1.2409172-1.1501424 1.7700129z"/><path id="Shape" d="m20 43.88c-3.6548552.116002-7.2924246-.5487835-10.67-1.95l-.67 8.08c.98639475.4579168 1.8500526 1.1433595 2.52 2 5.8641794-.6099998 11.7758206-.6099998 17.64 0 .6699474-.8566405 1.5336053-1.5420832 2.52-2l-.67-8.08c-3.3775754 1.4012165-7.0151448 2.066002-10.67 1.95z"/><path id="Shape" d="m32.53 12.24c-.0547692-.5315224-.4203063-.9796002-.93-1.14-7.6634767-1.46999984-15.5365233-1.46999984-23.2 0-.51191776.1571061-.87890409.6069603-.93 1.14-.62 5.67-1.24666667 11.3466667-1.88 17.03.81597775-1.483056 1.85473687-2.8320938 3.08-4h.01l.64-7.94c.00082906-.0342396.00759621-.0680753.02-.1 0-.01.01-.02.01-.03-.00081173-.0356651.00969016-.0706714.03-.1v-.01l.06-.15c.02657199-.0456089.05666338-.0890743.09-.13v-.01c.02138336-.0314728.0485272-.0586166.08-.08.0317289-.0383907.06876809-.0720626.11-.1.02480583-.0223678.05158127-.0424494.08-.06.9503249-.7233049 1.7402967-1.6358585 2.32-2.68.0126029-.0352149.0293898-.0687887.05-.1.0442165-.0795491.0979444-.1534248.16-.22.01-.01.01-.02.02-.02.0469488-.0547483.1048633-.0990358.17-.13.1607144-.1057265.3477034-.1645934.54-.17 4.6165011-.5 9.2734989-.5 13.89 0 .1888184.0075312.3720292.066297.53.17.0651367.0309642.1230512.0752517.17.13.0107307.0007258.0192742.0092693.02.02.0643159.0646806.1182823.1388844.16.22.0206102.0312113.0373971.0647851.05.1.5828155 1.0419619 1.3722781 1.9539272 2.32 2.68.0284187.0175506.0551942.0376322.08.06.0412319.0279374.0782711.0616093.11.1.0317364.0250783.0588155.0555422.08.09.0333366.0409257.063428.0843911.09.13.0186677.0322947.0353649.065689.05.1v.01c.01.02.01.03.02.05.0124038.0319247.0191709.0657604.02.1 0 .01.01.02.01.03.0124038.0319247.0191709.0657604.02.1l.64 7.94h.01c1.2220383 1.1670375 2.2604583 2.5122634 3.08 3.99-.63-5.68-1.2566667-11.3533333-1.88-17.02z"/><path id="Shape" d="m26.33 15.19c-4.2090462-.4299998-8.4509538-.4299998-12.66 0-.6278783 1.0449618-1.4372378 1.9694604-2.39 2.73v.01l-.45 5.59c2.6662621-1.8739719 5.841121-2.8892289 9.1-2.91h.14c3.258879.0207711 6.4337379 1.0360281 9.1 2.91l-.45-5.59v-.01c-.9527622-.7605396-1.7621217-1.6850382-2.39-2.73z"/><path id="Shape" d="m33.91 33.88c-.502037-2.8081459-1.9401206-5.363564-4.08-7.25-.01 0-.01 0-.01-.01l-.2-.18h-.01c0-.0055228-.0044772-.01-.01-.01-2.6020512-2.3968276-5.9928603-3.7559977-9.53-3.82h-.14c-3.5371397.0640023-6.9279488 1.4231724-9.53 3.82-.07.06-.15.13-.22.19 0 .01 0 .01-.01.01-2.13987944 1.886436-3.57796302 4.4418541-4.08 7.25-.24271427 1.5168184.20885475 3.0624327 1.23 4.21.46123678.5196007.99708166.9678231 1.59 1.33 2.45 1.58 6.35 2.45 11.09 2.46 4.65-.01 8.48-.85 10.94-2.36.0522489-.02983.1023688-.0632433.15-.1.5929183-.3621769 1.1287632-.8103993 1.59-1.33 1.0211453-1.1475673 1.4727143-2.6931816 1.23-4.21zm-4.4-.03h-.12c-.1-.01-.21-.03-.31-.04-.1467373.8107297-.5374866 1.5573401-1.12 2.14-.9372691.9051668-2.1973125 1.3983838-3.5 1.37-.1 0-.2 0-.31-.01-.2639497-.0144256-.5113355-.1331977-.6876533-.3301484-.1763178-.1969508-.2671005-.45592-.2523467-.7198516.0107036-.2652996.1283817-.5149582.3262055-.6920576s.4589315-.2665442.7237945-.2479424c.8347995.0782229 1.6635559-.2016641 2.28-.77.2603828-.2731315.4493059-.6063233.55-.97-2.06-.19-4.12-.31-6.19-.32-.5887092 2.3271089-2.6505812 3.9806894-5.05 4.05-.1.01-.21.01-.31.01-1.3026875.0283838-2.5627309-.4648332-3.5-1.37-.5825134-.5826599-.9732627-1.3292703-1.12-2.14-.1.01-.21.03-.31.04-.5464502.0580388-1.0410695-.3261744-1.12-.87-.03334935-.2639247.03961158-.5302792.20280426-.7403663.16319267-.2100872.40322324-.3466643.66719574-.3796337.2-.03.41-.05.61-.07.5409403-2.3951611 2.5645394-4.1683348 5.01-4.39.5522847-.0303757 1.0246243.3927153 1.055.945s-.3927153 1.0246243-.945 1.055c-1.3029122.1238664-2.4323672.9536701-2.94 2.16 1.98-.18 3.97-.29 5.96-.31.1966023-.9878439.6964923-1.8897432 1.43-2.58.9301433-.8933098 2.1931139-1.3542215 3.48-1.27 2.446863.2183904 4.472122 1.9930185 5.01 4.39.2.02.41.04.61.07.5258529.0641949.9100889.5278133.8755553 1.0564433s-.4758199.9383198-1.0055553.9335567z"/><path id="Shape" d="m13.46 34.55c.6164441.5683359 1.4452005.8482229 2.28.77 1.3359868-.0339753 2.5321296-.8365989 3.07-2.06-1.97.02-3.94.14-5.9.32.1006941.3636767.2896172.6968685.55.97z"/><path id="Shape" d="m23.91 29.4c-.7400367-.051395-1.4670723.213973-2 .73-.3306432.3124988-.5810542.7001214-.73 1.13 1.89.02 3.78.12 5.67.3-.5076328-1.2063299-1.6370878-2.0361336-2.94-2.16z"/></g></g></svg>