<svg height="512" viewBox="0 0 58 55" width="512" xmlns="http://www.w3.org/2000/svg"><g id="Page-1" fill="none" fill-rule="evenodd"><g id="058---Road-Closed" fill="rgb(0,0,0)" fill-rule="nonzero"><circle id="Oval" cx="15" cy="5" r="5"/><circle id="Oval" cx="43" cy="5" r="5"/><path id="Shape" d="m0 26c.00159279.5516236.44837635.9984072 1 1h7.55l-4.23-11h-3.32c-.55162365.0015928-.99840721.4483764-1 1z"/><path id="Shape" d="m10.69 27h4.85l-4.23-11h-4.85z"/><path id="Shape" d="m22.32 16h-8.87l4.23 11h8.87z"/><path id="Shape" d="m33.54 27-4.23-11h-4.85l4.23 11z"/><path id="Shape" d="m44.55 27-4.23-11h-8.87l4.23 11z"/><path id="Shape" d="m51.54 27-4.23-11h-4.85l4.23 11z"/><path id="Shape" d="m57 16h-7.55l4.23 11h3.32c.5516236-.0015928.9984072-.4483764 1-1v-9c-.0015928-.5516236-.4483764-.9984072-1-1z"/><path id="Shape" d="m1 34c-.55162365.0015928-.99840721.4483764-1 1v9c.00159279.5516236.44837635.9984072 1 1h7.55l-4.23-11z"/><path id="Shape" d="m11.31 34h-4.85l4.23 11h4.85z"/><path id="Shape" d="m13.45 34 4.23 11h8.87l-4.23-11z"/><path id="Shape" d="m24.46 34 4.23 11h4.85l-4.23-11z"/><path id="Shape" d="m40.32 34h-8.87l4.23 11h8.87z"/><path id="Shape" d="m42.46 34 4.23 11h4.85l-4.23-11z"/><path id="Shape" d="m57 34h-7.55l4.23 11h3.32c.5516236-.0015928.9984072-.4483764 1-1v-9c-.0015928-.5516236-.4483764-.9984072-1-1z"/><path id="Shape" d="m12 11.32v2.68h6v-2.68c-1.8972429.9066735-4.1027571.9066735-6 0z"/><path id="Rectangle-path" d="m12 29h6v3h-6z"/><path id="Shape" d="m12 53c.0032402 1.1032246.8967754 1.9967598 2 2h2c1.1032246-.0032402 1.9967598-.8967754 2-2v-6h-6z"/><path id="Shape" d="m40 11.32v2.68h6v-2.68c-1.8972429.9066735-4.1027571.9066735-6 0z"/><path id="Rectangle-path" d="m40 29h6v3h-6z"/><path id="Shape" d="m40 53c.0032402 1.1032246.8967754 1.9967598 2 2h2c1.1032246-.0032402 1.9967598-.8967754 2-2v-6h-6z"/></g></g></svg>