<svg height="512" viewBox="0 0 58 52" width="512" xmlns="http://www.w3.org/2000/svg"><g id="Page-1" fill="none" fill-rule="evenodd"><g id="059---Speed-Camera-Flash" fill="rgb(0,0,0)" fill-rule="nonzero"><circle id="Oval" cx="31" cy="34" r="1"/><path id="Shape" d="m29.5 30c-3.5898509 0-6.5 2.9101491-6.5 6.5s2.9101491 6.5 6.5 6.5 6.5-2.9101491 6.5-6.5c-.0034179-3.5884342-2.9115658-6.4965821-6.5-6.5zm1.5 7c-1.6568542 0-3-1.3431458-3-3s1.3431458-3 3-3 3 1.3431458 3 3c-.004833 1.6548482-1.3451518 2.995167-3 3z"/><path id="Shape" d="m29.5 26c-5.7989899 0-10.5 4.7010101-10.5 10.5s4.7010101 10.5 10.5 10.5 10.5-4.7010101 10.5-10.5c-.006338-5.7963626-4.7036374-10.493662-10.5-10.5zm0 19c-4.6944204 0-8.5-3.8055796-8.5-8.5s3.8055796-8.5 8.5-8.5 8.5 3.8055796 8.5 8.5c-.0067194 4.6916343-3.8083657 8.4932806-8.5 8.5z"/><path id="Shape" d="m43 21h-41c-.53048177-.0001592-1.03928211.2105033-1.41438939.5856106-.37510727.3751073-.58576983.8839076-.58561061 1.4143894v27c.0032402 1.1032246.89677542 1.9967598 2 2h41c1.1032246-.0032402 1.9967598-.8967754 2-2v-27c.0001592-.5304818-.2105033-1.0392821-.5856106-1.4143894s-.8839076-.5857698-1.4143894-.5856106zm-38 27c0 .5522847-.44771525 1-1 1s-1-.4477153-1-1v-7c0-.5522847.44771525-1 1-1s1 .4477153 1 1zm0-11c0 .5522847-.44771525 1-1 1s-1-.4477153-1-1v-2c0-.5522847.44771525-1 1-1s1 .4477153 1 1zm3-4c-2.209139 0-4-1.790861-4-4s1.790861-4 4-4 4 1.790861 4 4c-.0029197 2.2079285-1.7920715 3.9970803-4 4zm21.5 16c-6.9035594 0-12.5-5.5964406-12.5-12.5s5.5964406-12.5 12.5-12.5 12.5 5.5964406 12.5 12.5c-.0095842 6.8995856-5.6004144 12.4904158-12.5 12.5z"/><circle id="Oval" cx="8" cy="29" r="2"/><path id="Shape" d="m35.05 15.64 1.27 3.36h3.68l-2.09-4.87c-.7376103-1.3905393-2.2186833-2.2229101-3.79-2.13h-9.24c-1.5713167-.0929101-3.0523897.7394607-3.79 2.13l-2.09 4.87h3.68l1.27-3.36c.1447951-.3875006.5163429-.6431895.93-.64h9.24c.4136571-.0031895.7852049.2524994.93.64z"/><path id="Shape" d="m25.58 17-.76 2h9.36l-.76-2z"/><path id="Shape" d="m57.44 16.28c-1.47-.99-2.91-1.87-4.36-2.69-.5171267-.3629693-.6541448-1.0701593-.31-1.6.95-1.85 2.04-3.78 3.3-5.83.65-1.06.24-1.93-.78-1.54-1.9229485.73597436-3.8821563 1.37346787-5.87 1.91-.66.18-1.19-.15-1.21-.73-.06-1.71-.09-3.39-.12-5.06 0-.85-1.33-.99-2.26-.29-1.81 1.37-3.43 2.63-4.93 3.82-.5299555.41000817-1.2700445.41000817-1.8 0-1.5-1.19-3.12-2.45-4.93-3.82-.93-.7-2.26-.56-2.26.29-.03 1.67-.06 3.35-.11 5.06-.03.58-.56.91-1.22.73-1.9878437-.53653213-3.9470515-1.17402564-5.87-1.91-1.02-.39-1.43.48-.78 1.54.82 1.33 1.57 2.6 2.24 3.84h7.95c2.3776233-.10926069 4.5917985 1.2082325 5.63 3.35l2.42 5.65h.83c1.0609554-.0002919 2.0785407.4210417 2.8287495 1.1712505s1.1715424 1.7677941 1.1712505 2.8287495v12.04c.6.05 1.09-.21 1.09-.73.03-1.67.06-3.35.12-5.05.02-.59.55-.92 1.21-.74 1.93.53 3.88 1.16 5.87 1.91 1.02.39 1.43-.48.78-1.54-1.26-2.04-2.35-3.98-3.3-5.83-.3441448-.5298407-.2071267-1.2370307.31-1.6 1.45-.81 2.89-1.69 4.36-2.69.3576126-.3149503.5625257-.7684704.5625257-1.245s-.2049131-.9300497-.5625257-1.245z"/></g></g></svg>