<svg height="512" viewBox="0 0 58 57" width="512" xmlns="http://www.w3.org/2000/svg"><g id="Page-1" fill="none" fill-rule="evenodd"><g id="060---Satalite-Navigation-System" fill="rgb(0,0,0)" fill-rule="nonzero"><path id="Shape" d="m53.45 15h-48.9c-2.35735855-.1411814-4.38798173 1.6439818-4.55 4v31.64c.031728 1.5675295 1.03780059 2.9488832 2.52 3.46 1.90910572.6901826 3.89852655 1.1337697 5.92 1.32 2.28.33 4.5633333.6166667 6.85.86 4.5316261.4697318 9.0841045.7100386 13.64.72h.14c4.5558955-.0099614 9.1083739-.2502682 13.64-.72 2.29-.24 4.5733333-.5266667 6.85-.86 2.0214735-.1862303 4.0108943-.6298174 5.92-1.32 1.4821994-.5111168 2.488272-1.8924705 2.52-3.46v-31.64c-.1620183-2.3560182-2.1926415-4.1411814-4.55-4zm-30.45 38c-.5522847 0-1-.4477153-1-1s.4477153-1 1-1 1 .4477153 1 1c-.0015928.5516236-.4483764.9984072-1 1zm6 0c-.5522847 0-1-.4477153-1-1s.4477153-1 1-1 1 .4477153 1 1c-.0015928.5516236-.4483764.9984072-1 1zm6 0c-.5522847 0-1-.4477153-1-1s.4477153-1 1-1 1 .4477153 1 1c-.0015928.5516236-.4483764.9984072-1 1zm20-5c-.0015928.5516236-.4483764.9984072-1 1l-49.92.03c-.26603534.0027011-.52196165-.1017882-.71008674-.2899133s-.29261434-.4440514-.28991326-.7100867v-29.03c.00159279-.5516236.44837635-.9984072 1-1h49.92c.5516236.0015928.9984072.4483764 1 1z"/><path id="Shape" d="m28.66 42.79c.0667025.1289869.1997869.2099916.345.2099916s.2782975-.0810047.345-.2099916l4.99-9.13c.3244781-.5635281.5351306-1.185293.62-1.83.0886145-.8535717.0104998-1.71623-.23-2.54-.3177178-1.053228-.9156938-2.0003113-1.73-2.74-.8048404-.7365376-1.7984323-1.2350646-2.87-1.44-.3751425-.0761989-.7572092-.113065-1.14-.11-1.3785084.0000521-2.7130685.4850248-3.77 1.37-1.4126739 1.1806348-2.22635 2.928939-2.22 4.77.0191594.8465926.2494619 1.6749941.67 2.41zm.34-15.79c2.209139 0 4 1.790861 4 4s-1.790861 4-4 4-4-1.790861-4-4c-.0002919-1.0609554.4210417-2.0785407 1.1712505-2.8287495s1.7677941-1.1715424 2.8287495-1.1712505z"/><circle id="Oval" cx="29" cy="31" r="2"/><path id="Shape" d="m5.08 47.03 23.93-.01 23.99-.02v-27h-47.92zm18.86-22.2c1.4254027-1.1816664 3.2184852-1.8288736 5.07-1.83.4998564.0019657.9985261.0488206 1.49.14 2.9230126.5708188 5.2879893 2.7162455 6.14 5.57.2382091.7846065.3595118 1.6000301.36 2.42 0 .31-.02.61-.05.92-.1141673.9050464-.4064577 1.7785188-.86 2.57l-4.98 9.13c-.4214036.7667762-1.2250696 1.2451488-2.1 1.25h-.01c-.8776761-.0046204-1.6828991-.4877542-2.1-1.26l-4.98-9.24c-.5840831-1.0140268-.9006729-2.1599445-.92-3.33-.0140349-2.4459193 1.0639508-4.770555 2.94-6.34zm-16.65 2.46 5-5c.392587-.3893939 1.026113-.3881005 1.4171068.0028932.3909937.3909938.3922871 1.0245198.0028932 1.4171068l-5 5c-.39435792.3866869-1.02564208.3866869-1.42 0-.38997787-.3930079-.38997787-1.0269921 0-1.42zm0 7 12-12c.392587-.3893939 1.026113-.3881005 1.4171068.0028932.3909937.3909938.3922871 1.0245198.0028932 1.4171068l-12 12c-.39435792.3866869-1.02564208.3866869-1.42 0-.38997787-.3930079-.38997787-1.0269921 0-1.42z"/><path id="Shape" d="m41 10.0186c.3346369.0001063.6471471-.16717742.8326357-.44570176.1854887-.27852435.2193672-.63136815.0902643-.94009824-.708076-1.69635343-1.7423007-3.23719187-3.044-4.5351-2.6101859-2.62935535-6.1639671-4.10493312-9.8689-4.0977h-.0567c-3.7063909-.00807466-7.2618505 1.46754208-9.8733 4.0977-1.3015341 1.29823006-2.3359993 2.83897141-3.0449 4.5351-.2130438.50967597.0274241 1.09555612.5371 1.30859995.509676.21304385 1.0955561-.027424 1.3086-.53709995.6082795-1.45585735 1.4960905-2.778333 2.6132-3.8926 2.2382457-2.25465931 5.2860243-3.51932718 8.463-3.5117h.0489c3.1754402-.00595057 6.2213247 1.25854394 8.4589 3.5117 1.1175131 1.11374869 2.0051173 2.43637167 2.6123 3.8926.1555812.37216222.5195265.6144112.9229.6143z"/><path id="Shape" d="m37.3018 11.5527c.3349482.0000048.6476554-.1676831.832987-.4466858.1853316-.2790026.2186724-.6322638.088813-.9410142-.5069874-1.2108125-1.2453095-2.31109446-2.1736-3.2392-3.9078729-3.89838283-10.2337271-3.89838283-14.1416 0-.9279701.92785857-1.6660207 2.02783529-2.1728 3.2383-.1942658.5039068.0466642 1.0710217.5442209 1.2810183s1.0719589-.0130026 1.2974791-.5037183c.4074888-.9720769 1.0001602-1.85561569 1.745-2.6014 3.1270302-3.11704918 8.1863698-3.11704918 11.3134 0 .7448958.74505684 1.3373822 1.62819887 1.7443 2.6.1559216.3711659.5192138.6126381.9218.6127z"/><path id="Shape" d="m33.2637 9.6514c-2.3674012-2.3616169-6.1994476-2.36206418-8.5674-.001-.562556.5616746-1.0100578 1.2277641-1.3174 1.9609-.214013.5091553.0245185 1.0954632.5332 1.3106.1231546.0513918.2552528.0779337.3887.0781.4022121-.0000246.7653391-.2408094.9219-.6113.2061562-.4948571.5074145-.9444512.8867-1.3233 1.5869256-1.58054017 4.1530744-1.58054017 5.74 0 .3783827.3790214.6792594.8281626.8858 1.3223.2141208.5091237.8004263.7482708 1.30955.53415s.7482708-.8004263.53415-1.30955c-.3066697-.7329638-.7534176-1.3990435-1.3152-1.9609z"/></g></g></svg>